<?xml version="1.0" encoding="UTF-8" standalone="no"?>
<!DOCTYPE svg PUBLIC "-//W3C//DTD SVG 1.1//EN"
 "http://www.w3.org/Graphics/SVG/1.1/DTD/svg11.dtd">
<!-- Generated by graphviz version 2.43.20190912.0211 (20190912.0211)
 -->
<!-- Title: G Pages: 1 -->
<svg width="589pt" height="1998pt"
 viewBox="0.00 0.00 588.57 1998.00" xmlns="http://www.w3.org/2000/svg" xmlns:xlink="http://www.w3.org/1999/xlink">
<g id="graph0" class="graph" transform="scale(1 1) rotate(0) translate(4 1994)">
<title>G</title>
<polygon fill="white" stroke="transparent" points="-4,4 -4,-1994 584.57,-1994 584.57,4 -4,4"/>
<g id="clust1" class="cluster">
<title>cluster_Global</title>
<path fill="none" stroke="gray" d="M81.79,-260C81.79,-260 560.57,-260 560.57,-260 566.57,-260 572.57,-266 572.57,-272 572.57,-272 572.57,-1970 572.57,-1970 572.57,-1976 566.57,-1982 560.57,-1982 560.57,-1982 81.79,-1982 81.79,-1982 75.79,-1982 69.79,-1976 69.79,-1970 69.79,-1970 69.79,-272 69.79,-272 69.79,-266 75.79,-260 81.79,-260"/>
<text text-anchor="middle" x="321.18" y="-1969.2" font-family="Times,serif" font-size="11.00" fill="gray">Global</text>
</g>
<g id="clust2" class="cluster">
<title>cluster_\SDSLabs</title>
<path fill="none" stroke="gray" d="M89.79,-268C89.79,-268 552.57,-268 552.57,-268 558.57,-268 564.57,-274 564.57,-280 564.57,-280 564.57,-1942 564.57,-1942 564.57,-1948 558.57,-1954 552.57,-1954 552.57,-1954 89.79,-1954 89.79,-1954 83.79,-1954 77.79,-1948 77.79,-1942 77.79,-1942 77.79,-280 77.79,-280 77.79,-274 83.79,-268 89.79,-268"/>
<text text-anchor="middle" x="321.18" y="-1941.2" font-family="Times,serif" font-size="11.00" fill="gray">SDSLabs</text>
</g>
<g id="clust3" class="cluster">
<title>cluster_\SDSLabs\Quark</title>
<path fill="none" stroke="gray" d="M97.79,-276C97.79,-276 544.57,-276 544.57,-276 550.57,-276 556.57,-282 556.57,-288 556.57,-288 556.57,-1914 556.57,-1914 556.57,-1920 550.57,-1926 544.57,-1926 544.57,-1926 97.79,-1926 97.79,-1926 91.79,-1926 85.79,-1920 85.79,-1914 85.79,-1914 85.79,-288 85.79,-288 85.79,-282 91.79,-276 97.79,-276"/>
<text text-anchor="middle" x="321.18" y="-1913.2" font-family="Times,serif" font-size="11.00" fill="gray">Quark</text>
</g>
<g id="clust4" class="cluster">
<title>cluster_\SDSLabs\Quark\App</title>
<path fill="none" stroke="gray" d="M105.79,-328C105.79,-328 536.57,-328 536.57,-328 542.57,-328 548.57,-334 548.57,-340 548.57,-340 548.57,-1886 548.57,-1886 548.57,-1892 542.57,-1898 536.57,-1898 536.57,-1898 105.79,-1898 105.79,-1898 99.79,-1898 93.79,-1892 93.79,-1886 93.79,-1886 93.79,-340 93.79,-340 93.79,-334 99.79,-328 105.79,-328"/>
<text text-anchor="middle" x="321.18" y="-1885.2" font-family="Times,serif" font-size="11.00" fill="gray">App</text>
</g>
<g id="clust5" class="cluster">
<title>cluster_\SDSLabs\Quark\App\Auth</title>
<path fill="none" stroke="gray" d="M409.57,-1798C409.57,-1798 475.57,-1798 475.57,-1798 481.57,-1798 487.57,-1804 487.57,-1810 487.57,-1810 487.57,-1858 487.57,-1858 487.57,-1864 481.57,-1870 475.57,-1870 475.57,-1870 409.57,-1870 409.57,-1870 403.57,-1870 397.57,-1864 397.57,-1858 397.57,-1858 397.57,-1810 397.57,-1810 397.57,-1804 403.57,-1798 409.57,-1798"/>
<text text-anchor="middle" x="442.57" y="-1857.2" font-family="Times,serif" font-size="11.00" fill="gray">Auth</text>
</g>
<g id="clust6" class="cluster">
<title>cluster_\SDSLabs\Quark\App\Helpers</title>
<path fill="none" stroke="gray" d="M409.57,-1718C409.57,-1718 475.57,-1718 475.57,-1718 481.57,-1718 487.57,-1724 487.57,-1730 487.57,-1730 487.57,-1778 487.57,-1778 487.57,-1784 481.57,-1790 475.57,-1790 475.57,-1790 409.57,-1790 409.57,-1790 403.57,-1790 397.57,-1784 397.57,-1778 397.57,-1778 397.57,-1730 397.57,-1730 397.57,-1724 403.57,-1718 409.57,-1718"/>
<text text-anchor="middle" x="442.57" y="-1777.2" font-family="Times,serif" font-size="11.00" fill="gray">Helpers</text>
</g>
<g id="clust7" class="cluster">
<title>cluster_\SDSLabs\Quark\App\Http</title>
<path fill="none" stroke="gray" d="M356.57,-794C356.57,-794 528.57,-794 528.57,-794 534.57,-794 540.57,-800 540.57,-806 540.57,-806 540.57,-1618 540.57,-1618 540.57,-1624 534.57,-1630 528.57,-1630 528.57,-1630 356.57,-1630 356.57,-1630 350.57,-1630 344.57,-1624 344.57,-1618 344.57,-1618 344.57,-806 344.57,-806 344.57,-800 350.57,-794 356.57,-794"/>
<text text-anchor="middle" x="442.57" y="-1617.2" font-family="Times,serif" font-size="11.00" fill="gray">Http</text>
</g>
<g id="clust8" class="cluster">
<title>cluster_\SDSLabs\Quark\App\Http\Middleware</title>
<path fill="none" stroke="gray" d="M391.07,-1314C391.07,-1314 494.07,-1314 494.07,-1314 500.07,-1314 506.07,-1320 506.07,-1326 506.07,-1326 506.07,-1590 506.07,-1590 506.07,-1596 500.07,-1602 494.07,-1602 494.07,-1602 391.07,-1602 391.07,-1602 385.07,-1602 379.07,-1596 379.07,-1590 379.07,-1590 379.07,-1326 379.07,-1326 379.07,-1320 385.07,-1314 391.07,-1314"/>
<text text-anchor="middle" x="442.57" y="-1589.2" font-family="Times,serif" font-size="11.00" fill="gray">Middleware</text>
</g>
<g id="clust9" class="cluster">
<title>cluster_\SDSLabs\Quark\App\Http\Controllers</title>
<path fill="none" stroke="gray" d="M364.57,-802C364.57,-802 520.57,-802 520.57,-802 526.57,-802 532.57,-808 532.57,-814 532.57,-814 532.57,-1294 532.57,-1294 532.57,-1300 526.57,-1306 520.57,-1306 520.57,-1306 364.57,-1306 364.57,-1306 358.57,-1306 352.57,-1300 352.57,-1294 352.57,-1294 352.57,-814 352.57,-814 352.57,-808 358.57,-802 364.57,-802"/>
<text text-anchor="middle" x="442.57" y="-1293.2" font-family="Times,serif" font-size="11.00" fill="gray">Controllers</text>
</g>
<g id="clust10" class="cluster">
<title>cluster_\SDSLabs\Quark\App\Judge</title>
<path fill="none" stroke="gray" d="M113.79,-1638C113.79,-1638 502.07,-1638 502.07,-1638 508.07,-1638 514.07,-1644 514.07,-1650 514.07,-1650 514.07,-1698 514.07,-1698 514.07,-1704 508.07,-1710 502.07,-1710 502.07,-1710 113.79,-1710 113.79,-1710 107.79,-1710 101.79,-1704 101.79,-1698 101.79,-1698 101.79,-1650 101.79,-1650 101.79,-1644 107.79,-1638 113.79,-1638"/>
<text text-anchor="middle" x="307.93" y="-1697.2" font-family="Times,serif" font-size="11.00" fill="gray">Judge</text>
</g>
<g id="clust11" class="cluster">
<title>cluster_\SDSLabs\Quark\App\Models</title>
<path fill="none" stroke="gray" d="M383.07,-336C383.07,-336 502.07,-336 502.07,-336 508.07,-336 514.07,-342 514.07,-348 514.07,-348 514.07,-774 514.07,-774 514.07,-780 508.07,-786 502.07,-786 502.07,-786 383.07,-786 383.07,-786 377.07,-786 371.07,-780 371.07,-774 371.07,-774 371.07,-348 371.07,-348 371.07,-342 377.07,-336 383.07,-336"/>
<text text-anchor="middle" x="442.57" y="-773.2" font-family="Times,serif" font-size="11.00" fill="gray">Models</text>
</g>
<!-- \\SDSLabs\\Quark\\App\\Auth\\FalconGuard -->
<g id="node1" class="node">
<title>\\SDSLabs\\Quark\\App\\Auth\\FalconGuard</title>
<polygon fill="none" stroke="black" points="479.57,-1842 405.57,-1842 405.57,-1806 479.57,-1806 479.57,-1842"/>
<text text-anchor="middle" x="442.57" y="-1821.2" font-family="Courier,monospace" font-size="11.00">FalconGuard</text>
</g>
<!-- \\Illuminate\\Contracts\\Auth\\Guard -->
<g id="node29" class="node">
<title>\\Illuminate\\Contracts\\Auth\\Guard</title>
<ellipse fill="none" stroke="black" cx="144.29" cy="-234" rx="129.98" ry="18"/>
<text text-anchor="middle" x="144.29" y="-230.3" font-family="Times,serif" font-size="14.00" fill="gray">\Illuminate\Contracts\Auth\Guard</text>
</g>
<!-- \\SDSLabs\\Quark\\App\\Auth\\FalconGuard&#45;&gt;\\Illuminate\\Contracts\\Auth\\Guard -->
<g id="edge2" class="edge">
<title>\\SDSLabs\\Quark\\App\\Auth\\FalconGuard&#45;&gt;\\Illuminate\\Contracts\\Auth\\Guard</title>
<path fill="none" stroke="black" stroke-dasharray="1,5" d="M405.41,-1822.17C384.48,-1819.12 359.43,-1811.68 344.57,-1794 241.5,-1671.37 159.93,-462.57 147.06,-262.1"/>
<polygon fill="none" stroke="black" points="150.55,-261.83 146.42,-252.07 143.56,-262.27 150.55,-261.83"/>
</g>
<!-- \\SDSLabs\\Quark\\App\\Helpers\\Leaderboard -->
<g id="node2" class="node">
<title>\\SDSLabs\\Quark\\App\\Helpers\\Leaderboard</title>
<polygon fill="none" stroke="black" points="479.57,-1762 405.57,-1762 405.57,-1726 479.57,-1726 479.57,-1762"/>
<text text-anchor="middle" x="442.57" y="-1741.2" font-family="Courier,monospace" font-size="11.00">Leaderboard</text>
</g>
<!-- \\SDSLabs\\Quark\\App\\Http\\Middleware\\Authenticate -->
<g id="node3" class="node">
<title>\\SDSLabs\\Quark\\App\\Http\\Middleware\\Authenticate</title>
<polygon fill="none" stroke="black" points="482.57,-1574 402.57,-1574 402.57,-1538 482.57,-1538 482.57,-1574"/>
<text text-anchor="middle" x="442.57" y="-1553.2" font-family="Courier,monospace" font-size="11.00">Authenticate</text>
</g>
<!-- \\SDSLabs\\Quark\\App\\Http\\Middleware\\DeveloperCheck -->
<g id="node4" class="node">
<title>\\SDSLabs\\Quark\\App\\Http\\Middleware\\DeveloperCheck</title>
<polygon fill="none" stroke="black" points="487.57,-1520 397.57,-1520 397.57,-1484 487.57,-1484 487.57,-1520"/>
<text text-anchor="middle" x="442.57" y="-1499.2" font-family="Courier,monospace" font-size="11.00">DeveloperCheck</text>
</g>
<!-- \\SDSLabs\\Quark\\App\\Http\\Middleware\\Developer -->
<g id="node5" class="node">
<title>\\SDSLabs\\Quark\\App\\Http\\Middleware\\Developer</title>
<polygon fill="none" stroke="black" points="474.57,-1466 410.57,-1466 410.57,-1430 474.57,-1430 474.57,-1466"/>
<text text-anchor="middle" x="442.57" y="-1445.2" font-family="Courier,monospace" font-size="11.00">Developer</text>
</g>
<!-- \\SDSLabs\\Quark\\App\\Http\\Middleware\\FalconAuthenticate -->
<g id="node6" class="node">
<title>\\SDSLabs\\Quark\\App\\Http\\Middleware\\FalconAuthenticate</title>
<polygon fill="none" stroke="black" points="498.07,-1412 387.07,-1412 387.07,-1376 498.07,-1376 498.07,-1412"/>
<text text-anchor="middle" x="442.57" y="-1391.2" font-family="Courier,monospace" font-size="11.00">FalconAuthenticate</text>
</g>
<!-- \\SDSLabs\\Quark\\App\\Http\\Middleware\\SubstituteBindings -->
<g id="node7" class="node">
<title>\\SDSLabs\\Quark\\App\\Http\\Middleware\\SubstituteBindings</title>
<polygon fill="none" stroke="black" points="498.07,-1358 387.07,-1358 387.07,-1322 498.07,-1322 498.07,-1358"/>
<text text-anchor="middle" x="442.57" y="-1337.2" font-family="Courier,monospace" font-size="11.00">SubstituteBindings</text>
</g>
<!-- \\SDSLabs\\Quark\\App\\Http\\Controllers\\CompetitionProblemController -->
<g id="node8" class="node">
<title>\\SDSLabs\\Quark\\App\\Http\\Controllers\\CompetitionProblemController</title>
<polygon fill="none" stroke="black" points="524.57,-900 360.57,-900 360.57,-864 524.57,-864 524.57,-900"/>
<text text-anchor="middle" x="442.57" y="-879.2" font-family="Courier,monospace" font-size="11.00">CompetitionProblemController</text>
</g>
<!-- \\App\\Http\\Controllers\\Controller -->
<g id="node30" class="node">
<title>\\App\\Http\\Controllers\\Controller</title>
<ellipse fill="none" stroke="black" cx="144.29" cy="-180" rx="126.98" ry="18"/>
<text text-anchor="middle" x="144.29" y="-176.3" font-family="Times,serif" font-size="14.00" fill="gray">\App\Http\Controllers\Controller</text>
</g>
<!-- \\SDSLabs\\Quark\\App\\Http\\Controllers\\CompetitionProblemController&#45;&gt;\\App\\Http\\Controllers\\Controller -->
<g id="edge3" class="edge">
<title>\\SDSLabs\\Quark\\App\\Http\\Controllers\\CompetitionProblemController&#45;&gt;\\App\\Http\\Controllers\\Controller</title>
<path fill="none" stroke="black" d="M360.48,-868.26C354.48,-864.74 349.04,-860.38 344.57,-855 252.26,-743.78 385.54,-314.19 288.57,-207 283.08,-200.93 276.69,-195.96 269.71,-191.91"/>
<polygon fill="none" stroke="black" points="271.09,-188.68 260.59,-187.27 267.91,-194.92 271.09,-188.68"/>
</g>
<!-- \\SDSLabs\\Quark\\App\\Http\\Controllers\\UserController -->
<g id="node9" class="node">
<title>\\SDSLabs\\Quark\\App\\Http\\Controllers\\UserController</title>
<polygon fill="none" stroke="black" points="487.57,-846 397.57,-846 397.57,-810 487.57,-810 487.57,-846"/>
<text text-anchor="middle" x="442.57" y="-825.2" font-family="Courier,monospace" font-size="11.00">UserController</text>
</g>
<!-- \\SDSLabs\\Quark\\App\\Http\\Controllers\\UserController&#45;&gt;\\App\\Http\\Controllers\\Controller -->
<g id="edge4" class="edge">
<title>\\SDSLabs\\Quark\\App\\Http\\Controllers\\UserController&#45;&gt;\\App\\Http\\Controllers\\Controller</title>
<path fill="none" stroke="black" d="M397.37,-821.29C378.13,-816.04 357.16,-806.67 344.57,-790 266.16,-686.12 376.35,-303.1 288.57,-207 283.05,-200.95 276.64,-196.01 269.65,-191.97"/>
<polygon fill="none" stroke="black" points="271.01,-188.74 260.5,-187.34 267.84,-194.98 271.01,-188.74"/>
</g>
<!-- \\SDSLabs\\Quark\\App\\Http\\Controllers\\PracticeProblemController -->
<g id="node10" class="node">
<title>\\SDSLabs\\Quark\\App\\Http\\Controllers\\PracticeProblemController</title>
<polygon fill="none" stroke="black" points="516.57,-1278 368.57,-1278 368.57,-1242 516.57,-1242 516.57,-1278"/>
<text text-anchor="middle" x="442.57" y="-1257.2" font-family="Courier,monospace" font-size="11.00">PracticeProblemController</text>
</g>
<!-- \\SDSLabs\\Quark\\App\\Http\\Controllers\\PracticeProblemController&#45;&gt;\\App\\Http\\Controllers\\Controller -->
<g id="edge5" class="edge">
<title>\\SDSLabs\\Quark\\App\\Http\\Controllers\\PracticeProblemController&#45;&gt;\\App\\Http\\Controllers\\Controller</title>
<path fill="none" stroke="black" d="M368.17,-1250.5C359.09,-1246.41 350.82,-1240.77 344.57,-1233 201.54,-1055.01 439.06,-378.74 288.57,-207 283.24,-200.91 277,-195.92 270.16,-191.85"/>
<polygon fill="none" stroke="black" points="271.69,-188.7 261.21,-187.17 268.45,-194.91 271.69,-188.7"/>
</g>
<!-- \\SDSLabs\\Quark\\App\\Http\\Controllers\\CompetitionController -->
<g id="node11" class="node">
<title>\\SDSLabs\\Quark\\App\\Http\\Controllers\\CompetitionController</title>
<polygon fill="none" stroke="black" points="506.07,-1224 379.07,-1224 379.07,-1188 506.07,-1188 506.07,-1224"/>
<text text-anchor="middle" x="442.57" y="-1203.2" font-family="Courier,monospace" font-size="11.00">CompetitionController</text>
</g>
<!-- \\SDSLabs\\Quark\\App\\Http\\Controllers\\CompetitionController&#45;&gt;\\App\\Http\\Controllers\\Controller -->
<g id="edge6" class="edge">
<title>\\SDSLabs\\Quark\\App\\Http\\Controllers\\CompetitionController&#45;&gt;\\App\\Http\\Controllers\\Controller</title>
<path fill="none" stroke="black" d="M379.01,-1200.55C365.8,-1196.44 353.24,-1189.75 344.57,-1179 208.79,-1010.55 431.41,-369.51 288.57,-207 283.23,-200.92 276.98,-195.93 270.14,-191.87"/>
<polygon fill="none" stroke="black" points="271.67,-188.72 261.18,-187.2 268.43,-194.92 271.67,-188.72"/>
</g>
<!-- \\SDSLabs\\Quark\\App\\Http\\Controllers\\ProblemController -->
<g id="node12" class="node">
<title>\\SDSLabs\\Quark\\App\\Http\\Controllers\\ProblemController</title>
<polygon fill="none" stroke="black" points="495.57,-1170 389.57,-1170 389.57,-1134 495.57,-1134 495.57,-1170"/>
<text text-anchor="middle" x="442.57" y="-1149.2" font-family="Courier,monospace" font-size="11.00">ProblemController</text>
</g>
<!-- \\SDSLabs\\Quark\\App\\Http\\Controllers\\ProblemController&#45;&gt;\\App\\Http\\Controllers\\Controller -->
<g id="edge7" class="edge">
<title>\\SDSLabs\\Quark\\App\\Http\\Controllers\\ProblemController&#45;&gt;\\App\\Http\\Controllers\\Controller</title>
<path fill="none" stroke="black" d="M389.41,-1149.23C372.6,-1145.61 355.51,-1138.52 344.57,-1125 216.04,-966.1 423.76,-360.28 288.57,-207 283.22,-200.93 276.96,-195.95 270.12,-191.89"/>
<polygon fill="none" stroke="black" points="271.64,-188.73 261.15,-187.22 268.41,-194.94 271.64,-188.73"/>
</g>
<!-- \\SDSLabs\\Quark\\App\\Http\\Controllers\\CompetitionInvitesController -->
<g id="node13" class="node">
<title>\\SDSLabs\\Quark\\App\\Http\\Controllers\\CompetitionInvitesController</title>
<polygon fill="none" stroke="black" points="524.57,-1116 360.57,-1116 360.57,-1080 524.57,-1080 524.57,-1116"/>
<text text-anchor="middle" x="442.57" y="-1095.2" font-family="Courier,monospace" font-size="11.00">CompetitionInvitesController</text>
</g>
<!-- \\SDSLabs\\Quark\\App\\Http\\Controllers\\CompetitionInvitesController&#45;&gt;\\App\\Http\\Controllers\\Controller -->
<g id="edge8" class="edge">
<title>\\SDSLabs\\Quark\\App\\Http\\Controllers\\CompetitionInvitesController&#45;&gt;\\App\\Http\\Controllers\\Controller</title>
<path fill="none" stroke="black" d="M360.35,-1084.36C354.38,-1080.82 348.98,-1076.43 344.57,-1071 223.29,-921.64 416.11,-351.06 288.57,-207 283.15,-200.87 276.8,-195.86 269.86,-191.78"/>
<polygon fill="none" stroke="black" points="271.27,-188.57 260.78,-187.1 268.06,-194.79 271.27,-188.57"/>
</g>
<!-- \\SDSLabs\\Quark\\App\\Http\\Controllers\\TeamController -->
<g id="node14" class="node">
<title>\\SDSLabs\\Quark\\App\\Http\\Controllers\\TeamController</title>
<polygon fill="none" stroke="black" points="487.57,-1062 397.57,-1062 397.57,-1026 487.57,-1026 487.57,-1062"/>
<text text-anchor="middle" x="442.57" y="-1041.2" font-family="Courier,monospace" font-size="11.00">TeamController</text>
</g>
<!-- \\SDSLabs\\Quark\\App\\Http\\Controllers\\TeamController&#45;&gt;\\App\\Http\\Controllers\\Controller -->
<g id="edge9" class="edge">
<title>\\SDSLabs\\Quark\\App\\Http\\Controllers\\TeamController&#45;&gt;\\App\\Http\\Controllers\\Controller</title>
<path fill="none" stroke="black" d="M397.27,-1042.63C378.14,-1039.61 357.28,-1032.58 344.57,-1017 230.54,-877.18 408.46,-341.84 288.57,-207 283.13,-200.88 276.78,-195.88 269.83,-191.81"/>
<polygon fill="none" stroke="black" points="271.23,-188.59 260.74,-187.13 268.03,-194.81 271.23,-188.59"/>
</g>
<!-- \\SDSLabs\\Quark\\App\\Http\\Controllers\\SubmissionController -->
<g id="node15" class="node">
<title>\\SDSLabs\\Quark\\App\\Http\\Controllers\\SubmissionController</title>
<polygon fill="none" stroke="black" points="503.57,-1008 381.57,-1008 381.57,-972 503.57,-972 503.57,-1008"/>
<text text-anchor="middle" x="442.57" y="-987.2" font-family="Courier,monospace" font-size="11.00">SubmissionController</text>
</g>
<!-- \\SDSLabs\\Quark\\App\\Http\\Controllers\\SubmissionController&#45;&gt;\\App\\Http\\Controllers\\Controller -->
<g id="edge10" class="edge">
<title>\\SDSLabs\\Quark\\App\\Http\\Controllers\\SubmissionController&#45;&gt;\\App\\Http\\Controllers\\Controller</title>
<path fill="none" stroke="black" d="M381.41,-985.12C367.36,-981.09 353.83,-974.29 344.57,-963 237.78,-832.71 400.82,-332.62 288.57,-207 283.12,-200.89 276.75,-195.9 269.8,-191.84"/>
<polygon fill="none" stroke="black" points="271.19,-188.62 260.69,-187.17 268,-194.85 271.19,-188.62"/>
</g>
<!-- \\SDSLabs\\Quark\\App\\Http\\Controllers\\SolutionController -->
<g id="node16" class="node">
<title>\\SDSLabs\\Quark\\App\\Http\\Controllers\\SolutionController</title>
<polygon fill="none" stroke="black" points="498.07,-954 387.07,-954 387.07,-918 498.07,-918 498.07,-954"/>
<text text-anchor="middle" x="442.57" y="-933.2" font-family="Courier,monospace" font-size="11.00">SolutionController</text>
</g>
<!-- \\SDSLabs\\Quark\\App\\Http\\Controllers\\SolutionController&#45;&gt;\\App\\Http\\Controllers\\Controller -->
<g id="edge11" class="edge">
<title>\\SDSLabs\\Quark\\App\\Http\\Controllers\\SolutionController&#45;&gt;\\App\\Http\\Controllers\\Controller</title>
<path fill="none" stroke="black" d="M387.02,-932.54C371.05,-928.76 355.08,-921.75 344.57,-909 245.02,-788.25 393.18,-323.4 288.57,-207 283.1,-200.91 276.72,-195.93 269.76,-191.87"/>
<polygon fill="none" stroke="black" points="271.14,-188.65 260.65,-187.21 267.96,-194.88 271.14,-188.65"/>
</g>
<!-- \\SDSLabs\\Quark\\App\\Judge\\Judge -->
<g id="node17" class="node">
<title>\\SDSLabs\\Quark\\App\\Judge\\Judge</title>
<polygon fill="none" stroke="black" points="178.79,-1682 109.79,-1682 109.79,-1646 178.79,-1646 178.79,-1682"/>
<text text-anchor="start" x="117.79" y="-1667.2" font-family="Courier,monospace" font-size="11.00">«abstract»</text>
<text text-anchor="start" x="130.79" y="-1655.2" font-family="Courier,monospace" font-size="11.00">Judge</text>
</g>
<!-- \\SDSLabs\\Quark\\App\\Judge\\StringComparisonJudge -->
<g id="node18" class="node">
<title>\\SDSLabs\\Quark\\App\\Judge\\StringComparisonJudge</title>
<polygon fill="none" stroke="black" points="506.07,-1682 379.07,-1682 379.07,-1646 506.07,-1646 506.07,-1682"/>
<text text-anchor="middle" x="442.57" y="-1661.2" font-family="Courier,monospace" font-size="11.00">StringComparisonJudge</text>
</g>
<!-- \\SDSLabs\\Quark\\App\\Judge\\StringComparisonJudge&#45;&gt;\\SDSLabs\\Quark\\App\\Judge\\Judge -->
<g id="edge12" class="edge">
<title>\\SDSLabs\\Quark\\App\\Judge\\StringComparisonJudge&#45;&gt;\\SDSLabs\\Quark\\App\\Judge\\Judge</title>
<path fill="none" stroke="black" d="M378.74,-1664C321.81,-1664 239.37,-1664 189.22,-1664"/>
<polygon fill="none" stroke="black" points="189.03,-1660.5 179.03,-1664 189.03,-1667.5 189.03,-1660.5"/>
</g>
<!-- \\SDSLabs\\Quark\\App\\Models\\User -->
<g id="node19" class="node">
<title>\\SDSLabs\\Quark\\App\\Models\\User</title>
<polygon fill="none" stroke="black" points="469.57,-758 415.57,-758 415.57,-722 469.57,-722 469.57,-758"/>
<text text-anchor="middle" x="442.57" y="-737.2" font-family="Courier,monospace" font-size="11.00">User</text>
</g>
<!-- \\Illuminate\\Foundation\\Auth\\User -->
<g id="node31" class="node">
<title>\\Illuminate\\Foundation\\Auth\\User</title>
<ellipse fill="none" stroke="black" cx="144.29" cy="-126" rx="131.08" ry="18"/>
<text text-anchor="middle" x="144.29" y="-122.3" font-family="Times,serif" font-size="14.00" fill="gray">\Illuminate\Foundation\Auth\User</text>
</g>
<!-- \\SDSLabs\\Quark\\App\\Models\\User&#45;&gt;\\Illuminate\\Foundation\\Auth\\User -->
<g id="edge13" class="edge">
<title>\\SDSLabs\\Quark\\App\\Models\\User&#45;&gt;\\Illuminate\\Foundation\\Auth\\User</title>
<path fill="none" stroke="black" d="M415.47,-740.34C393.08,-739.11 361.79,-733.46 344.57,-713 264.05,-617.3 373.1,-245.18 288.57,-153 283.46,-147.42 277.58,-142.78 271.19,-138.92"/>
<polygon fill="none" stroke="black" points="272.66,-135.74 262.19,-134.15 269.38,-141.93 272.66,-135.74"/>
</g>
<!-- \\SDSLabs\\Quark\\App\\Models\\Invite -->
<g id="node20" class="node">
<title>\\SDSLabs\\Quark\\App\\Models\\Invite</title>
<polygon fill="none" stroke="black" points="469.57,-434 415.57,-434 415.57,-398 469.57,-398 469.57,-434"/>
<text text-anchor="middle" x="442.57" y="-413.2" font-family="Courier,monospace" font-size="11.00">Invite</text>
</g>
<!-- \\Illuminate\\Database\\Eloquent\\Model -->
<g id="node32" class="node">
<title>\\Illuminate\\Database\\Eloquent\\Model</title>
<ellipse fill="none" stroke="black" cx="144.29" cy="-72" rx="144.07" ry="18"/>
<text text-anchor="middle" x="144.29" y="-68.3" font-family="Times,serif" font-size="14.00" fill="gray">\Illuminate\Database\Eloquent\Model</text>
</g>
<!-- \\SDSLabs\\Quark\\App\\Models\\Invite&#45;&gt;\\Illuminate\\Database\\Eloquent\\Model -->
<g id="edge14" class="edge">
<title>\\SDSLabs\\Quark\\App\\Models\\Invite&#45;&gt;\\Illuminate\\Database\\Eloquent\\Model</title>
<path fill="none" stroke="black" d="M415.47,-415.92C393.41,-414.39 362.59,-408.53 344.57,-389 255.57,-292.51 381.61,-191.61 288.57,-99 283.92,-94.37 278.75,-90.4 273.2,-87.01"/>
<polygon fill="none" stroke="black" points="274.65,-83.81 264.19,-82.13 271.32,-89.97 274.65,-83.81"/>
</g>
<!-- \\SDSLabs\\Quark\\App\\Models\\CompetitionSubmission -->
<g id="node21" class="node">
<title>\\SDSLabs\\Quark\\App\\Models\\CompetitionSubmission</title>
<polygon fill="none" stroke="black" points="506.07,-380 379.07,-380 379.07,-344 506.07,-344 506.07,-380"/>
<text text-anchor="middle" x="442.57" y="-359.2" font-family="Courier,monospace" font-size="11.00">CompetitionSubmission</text>
</g>
<!-- \\SDSLabs\\Quark\\App\\Models\\CompetitionSubmission&#45;&gt;\\Illuminate\\Database\\Eloquent\\Model -->
<g id="edge15" class="edge">
<title>\\SDSLabs\\Quark\\App\\Models\\CompetitionSubmission&#45;&gt;\\Illuminate\\Database\\Eloquent\\Model</title>
<path fill="none" stroke="black" d="M378.95,-358.39C366.21,-354.95 353.88,-349.26 344.57,-340 266.61,-262.45 367.95,-175.1 288.57,-99 283.78,-94.4 278.46,-90.46 272.77,-87.09"/>
<polygon fill="none" stroke="black" points="274.04,-83.81 263.56,-82.26 270.79,-90.01 274.04,-83.81"/>
</g>
<!-- \\SDSLabs\\Quark\\App\\Models\\Problem -->
<g id="node22" class="node">
<title>\\SDSLabs\\Quark\\App\\Models\\Problem</title>
<polygon fill="none" stroke="black" points="469.57,-704 415.57,-704 415.57,-668 469.57,-668 469.57,-704"/>
<text text-anchor="middle" x="442.57" y="-683.2" font-family="Courier,monospace" font-size="11.00">Problem</text>
</g>
<!-- \\SDSLabs\\Quark\\App\\Models\\Problem&#45;&gt;\\Illuminate\\Database\\Eloquent\\Model -->
<g id="edge16" class="edge">
<title>\\SDSLabs\\Quark\\App\\Models\\Problem&#45;&gt;\\Illuminate\\Database\\Eloquent\\Model</title>
<path fill="none" stroke="black" d="M415.47,-686.34C393.08,-685.11 361.79,-679.46 344.57,-659 264.05,-563.3 373.1,-191.18 288.57,-99 284.35,-94.4 279.62,-90.43 274.5,-87.02"/>
<polygon fill="none" stroke="black" points="275.96,-83.82 265.56,-81.8 272.43,-89.87 275.96,-83.82"/>
</g>
<!-- \\SDSLabs\\Quark\\App\\Models\\Solution -->
<g id="node23" class="node">
<title>\\SDSLabs\\Quark\\App\\Models\\Solution</title>
<polygon fill="none" stroke="black" points="472.07,-650 413.07,-650 413.07,-614 472.07,-614 472.07,-650"/>
<text text-anchor="middle" x="442.57" y="-629.2" font-family="Courier,monospace" font-size="11.00">Solution</text>
</g>
<!-- \\SDSLabs\\Quark\\App\\Models\\Solution&#45;&gt;\\Illuminate\\Database\\Eloquent\\Model -->
<g id="edge17" class="edge">
<title>\\SDSLabs\\Quark\\App\\Models\\Solution&#45;&gt;\\Illuminate\\Database\\Eloquent\\Model</title>
<path fill="none" stroke="black" d="M412.85,-632.13C390.73,-630.57 361.22,-624.57 344.57,-605 197.99,-432.64 442.37,-264.96 288.57,-99 284.33,-94.42 279.57,-90.47 274.44,-87.08"/>
<polygon fill="none" stroke="black" points="275.89,-83.87 265.48,-81.87 272.37,-89.92 275.89,-83.87"/>
</g>
<!-- \\SDSLabs\\Quark\\App\\Models\\Team -->
<g id="node24" class="node">
<title>\\SDSLabs\\Quark\\App\\Models\\Team</title>
<polygon fill="none" stroke="black" points="469.57,-596 415.57,-596 415.57,-560 469.57,-560 469.57,-596"/>
<text text-anchor="middle" x="442.57" y="-575.2" font-family="Courier,monospace" font-size="11.00">Team</text>
</g>
<!-- \\SDSLabs\\Quark\\App\\Models\\Team&#45;&gt;\\Illuminate\\Database\\Eloquent\\Model -->
<g id="edge18" class="edge">
<title>\\SDSLabs\\Quark\\App\\Models\\Team&#45;&gt;\\Illuminate\\Database\\Eloquent\\Model</title>
<path fill="none" stroke="black" d="M415.14,-578.22C392.86,-576.87 361.92,-571.13 344.57,-551 212.43,-397.66 427.13,-246.57 288.57,-99 284.3,-94.45 279.52,-90.52 274.37,-87.15"/>
<polygon fill="none" stroke="black" points="275.79,-83.93 265.38,-81.97 272.3,-89.99 275.79,-83.93"/>
</g>
<!-- \\SDSLabs\\Quark\\App\\Models\\PracticeSubmission -->
<g id="node25" class="node">
<title>\\SDSLabs\\Quark\\App\\Models\\PracticeSubmission</title>
<polygon fill="none" stroke="black" points="498.07,-542 387.07,-542 387.07,-506 498.07,-506 498.07,-542"/>
<text text-anchor="middle" x="442.57" y="-521.2" font-family="Courier,monospace" font-size="11.00">PracticeSubmission</text>
</g>
<!-- \\SDSLabs\\Quark\\App\\Models\\PracticeSubmission&#45;&gt;\\Illuminate\\Database\\Eloquent\\Model -->
<g id="edge19" class="edge">
<title>\\SDSLabs\\Quark\\App\\Models\\PracticeSubmission&#45;&gt;\\Illuminate\\Database\\Eloquent\\Model</title>
<path fill="none" stroke="black" d="M386.96,-520.03C371.19,-516.21 355.35,-509.29 344.57,-497 226.85,-362.65 411.92,-228.21 288.57,-99 284.1,-94.31 279.09,-90.29 273.69,-86.86"/>
<polygon fill="none" stroke="black" points="275.35,-83.77 264.92,-81.92 271.92,-89.87 275.35,-83.77"/>
</g>
<!-- \\SDSLabs\\Quark\\App\\Models\\Competition -->
<g id="node26" class="node">
<title>\\SDSLabs\\Quark\\App\\Models\\Competition</title>
<polygon fill="none" stroke="black" points="479.57,-488 405.57,-488 405.57,-452 479.57,-452 479.57,-488"/>
<text text-anchor="middle" x="442.57" y="-467.2" font-family="Courier,monospace" font-size="11.00">Competition</text>
</g>
<!-- \\SDSLabs\\Quark\\App\\Models\\Competition&#45;&gt;\\Illuminate\\Database\\Eloquent\\Model -->
<g id="edge20" class="edge">
<title>\\SDSLabs\\Quark\\App\\Models\\Competition&#45;&gt;\\Illuminate\\Database\\Eloquent\\Model</title>
<path fill="none" stroke="black" d="M405.23,-469.12C384.51,-466.63 359.73,-459.93 344.57,-443 241.24,-327.61 396.74,-209.89 288.57,-99 284.05,-94.36 279,-90.38 273.57,-86.97"/>
<polygon fill="none" stroke="black" points="275.19,-83.87 264.75,-82.08 271.8,-89.99 275.19,-83.87"/>
</g>
<!-- \\SDSLabs\\Quark\\QuarkServiceProvider -->
<g id="node27" class="node">
<title>\\SDSLabs\\Quark\\QuarkServiceProvider</title>
<polygon fill="none" stroke="black" points="503.57,-320 381.57,-320 381.57,-284 503.57,-284 503.57,-320"/>
<text text-anchor="middle" x="442.57" y="-299.2" font-family="Courier,monospace" font-size="11.00">QuarkServiceProvider</text>
</g>
<!-- \\Illuminate\\Support\\ServiceProvider -->
<g id="node28" class="node">
<title>\\Illuminate\\Support\\ServiceProvider</title>
<ellipse fill="none" stroke="black" cx="144.29" cy="-18" rx="139.18" ry="18"/>
<text text-anchor="middle" x="144.29" y="-14.3" font-family="Times,serif" font-size="14.00" fill="gray">\Illuminate\Support\ServiceProvider</text>
</g>
<!-- \\SDSLabs\\Quark\\QuarkServiceProvider&#45;&gt;\\Illuminate\\Support\\ServiceProvider -->
<g id="edge1" class="edge">
<title>\\SDSLabs\\Quark\\QuarkServiceProvider&#45;&gt;\\Illuminate\\Support\\ServiceProvider</title>
<path fill="none" stroke="black" d="M436.48,-283.78C422.11,-235.98 376.46,-106.43 288.57,-45 281.41,-40 273.58,-35.85 265.38,-32.42"/>
<polygon fill="none" stroke="black" points="266.58,-29.13 255.99,-28.85 264.1,-35.68 266.58,-29.13"/>
</g>
</g>
</svg>
