<?xml version="1.0" encoding="UTF-8" standalone="no"?>
<!DOCTYPE svg PUBLIC "-//W3C//DTD SVG 1.1//EN"
 "http://www.w3.org/Graphics/SVG/1.1/DTD/svg11.dtd">
<!-- Generated by graphviz version 2.43.20190912.0211 (20190912.0211)
 -->
<!-- Title: G Pages: 1 -->
<svg width="589pt" height="1998pt"
 viewBox="0.00 0.00 588.57 1998.00" xmlns="http://www.w3.org/2000/svg" xmlns:xlink="http://www.w3.org/1999/xlink">
<g id="graph0" class="graph" transform="scale(1 1) rotate(0) translate(4 1994)">
<title>G</title>
<polygon fill="white" stroke="transparent" points="-4,4 -4,-1994 584.57,-1994 584.57,4 -4,4"/>
<g id="clust1" class="cluster">
<title>cluster_Global</title>
<path fill="none" stroke="gray" d="M81.79,-260C81.79,-260 560.57,-260 560.57,-260 566.57,-260 572.57,-266 572.57,-272 572.57,-272 572.57,-1970 572.57,-1970 572.57,-1976 566.57,-1982 560.57,-1982 560.57,-1982 81.79,-1982 81.79,-1982 75.79,-1982 69.79,-1976 69.79,-1970 69.79,-1970 69.79,-272 69.79,-272 69.79,-266 75.79,-260 81.79,-260"/>
<text text-anchor="middle" x="321.18" y="-1969.2" font-family="Times,serif" font-size="11.00" fill="gray">Global</text>
</g>
<g id="clust2" class="cluster">
<title>cluster_\SDSLabs</title>
<path fill="none" stroke="gray" d="M89.79,-268C89.79,-268 552.57,-268 552.57,-268 558.57,-268 564.57,-274 564.57,-280 564.57,-280 564.57,-1942 564.57,-1942 564.57,-1948 558.57,-1954 552.57,-1954 552.57,-1954 89.79,-1954 89.79,-1954 83.79,-1954 77.79,-1948 77.79,-1942 77.79,-1942 77.79,-280 77.79,-280 77.79,-274 83.79,-268 89.79,-268"/>
<text text-anchor="middle" x="321.18" y="-1941.2" font-family="Times,serif" font-size="11.00" fill="gray">SDSLabs</text>
</g>
<g id="clust3" class="cluster">
<title>cluster_\SDSLabs\Quark</title>
<path fill="none" stroke="gray" d="M97.79,-276C97.79,-276 544.57,-276 544.57,-276 550.57,-276 556.57,-282 556.57,-288 556.57,-288 556.57,-1914 556.57,-1914 556.57,-1920 550.57,-1926 544.57,-1926 544.57,-1926 97.79,-1926 97.79,-1926 91.79,-1926 85.79,-1920 85.79,-1914 85.79,-1914 85.79,-288 85.79,-288 85.79,-282 91.79,-276 97.79,-276"/>
<text text-anchor="middle" x="321.18" y="-1913.2" font-family="Times,serif" font-size="11.00" fill="gray">Quark</text>
</g>
<g id="clust4" class="cluster">
<title>cluster_\SDSLabs\Quark\App</title>
<path fill="none" stroke="gray" d="M105.79,-328C105.79,-328 536.57,-328 536.57,-328 542.57,-328 548.57,-334 548.57,-340 548.57,-340 548.57,-1886 548.57,-1886 548.57,-1892 542.57,-1898 536.57,-1898 536.57,-1898 105.79,-1898 105.79,-1898 99.79,-1898 93.79,-1892 93.79,-1886 93.79,-1886 93.79,-340 93.79,-340 93.79,-334 99.79,-328 105.79,-328"/>
<text text-anchor="middle" x="321.18" y="-1885.2" font-family="Times,serif" font-size="11.00" fill="gray">App</text>
</g>
<g id="clust5" class="cluster">
<title>cluster_\SDSLabs\Quark\App\Http</title>
<path fill="none" stroke="gray" d="M356.57,-954C356.57,-954 528.57,-954 528.57,-954 534.57,-954 540.57,-960 540.57,-966 540.57,-966 540.57,-1778 540.57,-1778 540.57,-1784 534.57,-1790 528.57,-1790 528.57,-1790 356.57,-1790 356.57,-1790 350.57,-1790 344.57,-1784 344.57,-1778 344.57,-1778 344.57,-966 344.57,-966 344.57,-960 350.57,-954 356.57,-954"/>
<text text-anchor="middle" x="442.57" y="-1777.2" font-family="Times,serif" font-size="11.00" fill="gray">Http</text>
</g>
<g id="clust6" class="cluster">
<title>cluster_\SDSLabs\Quark\App\Http\Controllers</title>
<path fill="none" stroke="gray" d="M364.57,-1258C364.57,-1258 520.57,-1258 520.57,-1258 526.57,-1258 532.57,-1264 532.57,-1270 532.57,-1270 532.57,-1750 532.57,-1750 532.57,-1756 526.57,-1762 520.57,-1762 520.57,-1762 364.57,-1762 364.57,-1762 358.57,-1762 352.57,-1756 352.57,-1750 352.57,-1750 352.57,-1270 352.57,-1270 352.57,-1264 358.57,-1258 364.57,-1258"/>
<text text-anchor="middle" x="442.57" y="-1749.2" font-family="Times,serif" font-size="11.00" fill="gray">Controllers</text>
</g>
<g id="clust7" class="cluster">
<title>cluster_\SDSLabs\Quark\App\Http\Middleware</title>
<path fill="none" stroke="gray" d="M391.07,-962C391.07,-962 494.07,-962 494.07,-962 500.07,-962 506.07,-968 506.07,-974 506.07,-974 506.07,-1238 506.07,-1238 506.07,-1244 500.07,-1250 494.07,-1250 494.07,-1250 391.07,-1250 391.07,-1250 385.07,-1250 379.07,-1244 379.07,-1238 379.07,-1238 379.07,-974 379.07,-974 379.07,-968 385.07,-962 391.07,-962"/>
<text text-anchor="middle" x="442.57" y="-1237.2" font-family="Times,serif" font-size="11.00" fill="gray">Middleware</text>
</g>
<g id="clust8" class="cluster">
<title>cluster_\SDSLabs\Quark\App\Models</title>
<path fill="none" stroke="gray" d="M383.07,-496C383.07,-496 502.07,-496 502.07,-496 508.07,-496 514.07,-502 514.07,-508 514.07,-508 514.07,-934 514.07,-934 514.07,-940 508.07,-946 502.07,-946 502.07,-946 383.07,-946 383.07,-946 377.07,-946 371.07,-940 371.07,-934 371.07,-934 371.07,-508 371.07,-508 371.07,-502 377.07,-496 383.07,-496"/>
<text text-anchor="middle" x="442.57" y="-933.2" font-family="Times,serif" font-size="11.00" fill="gray">Models</text>
</g>
<g id="clust9" class="cluster">
<title>cluster_\SDSLabs\Quark\App\Judge</title>
<path fill="none" stroke="gray" d="M113.79,-1798C113.79,-1798 502.07,-1798 502.07,-1798 508.07,-1798 514.07,-1804 514.07,-1810 514.07,-1810 514.07,-1858 514.07,-1858 514.07,-1864 508.07,-1870 502.07,-1870 502.07,-1870 113.79,-1870 113.79,-1870 107.79,-1870 101.79,-1864 101.79,-1858 101.79,-1858 101.79,-1810 101.79,-1810 101.79,-1804 107.79,-1798 113.79,-1798"/>
<text text-anchor="middle" x="307.93" y="-1857.2" font-family="Times,serif" font-size="11.00" fill="gray">Judge</text>
</g>
<g id="clust10" class="cluster">
<title>cluster_\SDSLabs\Quark\App\Helpers</title>
<path fill="none" stroke="gray" d="M409.57,-416C409.57,-416 475.57,-416 475.57,-416 481.57,-416 487.57,-422 487.57,-428 487.57,-428 487.57,-476 487.57,-476 487.57,-482 481.57,-488 475.57,-488 475.57,-488 409.57,-488 409.57,-488 403.57,-488 397.57,-482 397.57,-476 397.57,-476 397.57,-428 397.57,-428 397.57,-422 403.57,-416 409.57,-416"/>
<text text-anchor="middle" x="442.57" y="-475.2" font-family="Times,serif" font-size="11.00" fill="gray">Helpers</text>
</g>
<g id="clust11" class="cluster">
<title>cluster_\SDSLabs\Quark\App\Auth</title>
<path fill="none" stroke="gray" d="M409.57,-336C409.57,-336 475.57,-336 475.57,-336 481.57,-336 487.57,-342 487.57,-348 487.57,-348 487.57,-396 487.57,-396 487.57,-402 481.57,-408 475.57,-408 475.57,-408 409.57,-408 409.57,-408 403.57,-408 397.57,-402 397.57,-396 397.57,-396 397.57,-348 397.57,-348 397.57,-342 403.57,-336 409.57,-336"/>
<text text-anchor="middle" x="442.57" y="-395.2" font-family="Times,serif" font-size="11.00" fill="gray">Auth</text>
</g>
<!-- \\SDSLabs\\Quark\\App\\Http\\Controllers\\CompetitionInvitesController -->
<g id="node1" class="node">
<title>\\SDSLabs\\Quark\\App\\Http\\Controllers\\CompetitionInvitesController</title>
<polygon fill="none" stroke="black" points="524.57,-1734 360.57,-1734 360.57,-1698 524.57,-1698 524.57,-1734"/>
<text text-anchor="middle" x="442.57" y="-1713.2" font-family="Courier,monospace" font-size="11.00">CompetitionInvitesController</text>
</g>
<!-- \\App\\Http\\Controllers\\Controller -->
<g id="node28" class="node">
<title>\\App\\Http\\Controllers\\Controller</title>
<ellipse fill="none" stroke="black" cx="144.29" cy="-234" rx="126.98" ry="18"/>
<text text-anchor="middle" x="144.29" y="-230.3" font-family="Times,serif" font-size="14.00" fill="gray">\App\Http\Controllers\Controller</text>
</g>
<!-- \\SDSLabs\\Quark\\App\\Http\\Controllers\\CompetitionInvitesController&#45;&gt;\\App\\Http\\Controllers\\Controller -->
<g id="edge1" class="edge">
<title>\\SDSLabs\\Quark\\App\\Http\\Controllers\\CompetitionInvitesController&#45;&gt;\\App\\Http\\Controllers\\Controller</title>
<path fill="none" stroke="black" d="M360.31,-1701.76C354.43,-1698.33 349.06,-1694.14 344.57,-1689 149.44,-1465.49 144.4,-445.73 145.09,-262.3"/>
<polygon fill="none" stroke="black" points="148.59,-262.14 145.14,-252.12 141.59,-262.11 148.59,-262.14"/>
</g>
<!-- \\SDSLabs\\Quark\\App\\Http\\Controllers\\CompetitionProblemController -->
<g id="node2" class="node">
<title>\\SDSLabs\\Quark\\App\\Http\\Controllers\\CompetitionProblemController</title>
<polygon fill="none" stroke="black" points="524.57,-1680 360.57,-1680 360.57,-1644 524.57,-1644 524.57,-1680"/>
<text text-anchor="middle" x="442.57" y="-1659.2" font-family="Courier,monospace" font-size="11.00">CompetitionProblemController</text>
</g>
<!-- \\SDSLabs\\Quark\\App\\Http\\Controllers\\CompetitionProblemController&#45;&gt;\\App\\Http\\Controllers\\Controller -->
<g id="edge2" class="edge">
<title>\\SDSLabs\\Quark\\App\\Http\\Controllers\\CompetitionProblemController&#45;&gt;\\App\\Http\\Controllers\\Controller</title>
<path fill="none" stroke="black" d="M360.34,-1647.73C354.45,-1644.31 349.07,-1640.12 344.57,-1635 156.48,-1420.67 145.64,-443.04 145.26,-262.66"/>
<polygon fill="none" stroke="black" points="148.76,-262.39 145.24,-252.39 141.76,-262.39 148.76,-262.39"/>
</g>
<!-- \\SDSLabs\\Quark\\App\\Http\\Controllers\\SolutionController -->
<g id="node3" class="node">
<title>\\SDSLabs\\Quark\\App\\Http\\Controllers\\SolutionController</title>
<polygon fill="none" stroke="black" points="498.07,-1626 387.07,-1626 387.07,-1590 498.07,-1590 498.07,-1626"/>
<text text-anchor="middle" x="442.57" y="-1605.2" font-family="Courier,monospace" font-size="11.00">SolutionController</text>
</g>
<!-- \\SDSLabs\\Quark\\App\\Http\\Controllers\\SolutionController&#45;&gt;\\App\\Http\\Controllers\\Controller -->
<g id="edge8" class="edge">
<title>\\SDSLabs\\Quark\\App\\Http\\Controllers\\SolutionController&#45;&gt;\\App\\Http\\Controllers\\Controller</title>
<path fill="none" stroke="black" d="M387.01,-1603.99C371.24,-1600.16 355.39,-1593.25 344.57,-1581 163.29,-1375.59 146.91,-437.96 145.43,-262.38"/>
<polygon fill="none" stroke="black" points="148.93,-262.12 145.36,-252.14 141.93,-262.17 148.93,-262.12"/>
</g>
<!-- \\SDSLabs\\Quark\\App\\Http\\Controllers\\SubmissionController -->
<g id="node4" class="node">
<title>\\SDSLabs\\Quark\\App\\Http\\Controllers\\SubmissionController</title>
<polygon fill="none" stroke="black" points="503.57,-1572 381.57,-1572 381.57,-1536 503.57,-1536 503.57,-1572"/>
<text text-anchor="middle" x="442.57" y="-1551.2" font-family="Courier,monospace" font-size="11.00">SubmissionController</text>
</g>
<!-- \\SDSLabs\\Quark\\App\\Http\\Controllers\\SubmissionController&#45;&gt;\\App\\Http\\Controllers\\Controller -->
<g id="edge9" class="edge">
<title>\\SDSLabs\\Quark\\App\\Http\\Controllers\\SubmissionController&#45;&gt;\\App\\Http\\Controllers\\Controller</title>
<path fill="none" stroke="black" d="M381.5,-1548.46C367.63,-1544.42 354.15,-1537.78 344.57,-1527 170.17,-1330.59 148.23,-433.65 145.62,-262.33"/>
<polygon fill="none" stroke="black" points="149.12,-262.27 145.48,-252.32 142.12,-262.37 149.12,-262.27"/>
</g>
<!-- \\SDSLabs\\Quark\\App\\Http\\Controllers\\PracticeProblemController -->
<g id="node5" class="node">
<title>\\SDSLabs\\Quark\\App\\Http\\Controllers\\PracticeProblemController</title>
<polygon fill="none" stroke="black" points="516.57,-1518 368.57,-1518 368.57,-1482 516.57,-1482 516.57,-1518"/>
<text text-anchor="middle" x="442.57" y="-1497.2" font-family="Courier,monospace" font-size="11.00">PracticeProblemController</text>
</g>
<!-- \\SDSLabs\\Quark\\App\\Http\\Controllers\\PracticeProblemController&#45;&gt;\\App\\Http\\Controllers\\Controller -->
<g id="edge12" class="edge">
<title>\\SDSLabs\\Quark\\App\\Http\\Controllers\\PracticeProblemController&#45;&gt;\\App\\Http\\Controllers\\Controller</title>
<path fill="none" stroke="black" d="M368.41,-1489.67C359.41,-1485.7 351.1,-1480.3 344.57,-1473 177.11,-1285.64 149.63,-429.87 145.84,-262.45"/>
<polygon fill="none" stroke="black" points="149.33,-262.36 145.62,-252.44 142.34,-262.51 149.33,-262.36"/>
</g>
<!-- \\SDSLabs\\Quark\\App\\Http\\Controllers\\TeamController -->
<g id="node6" class="node">
<title>\\SDSLabs\\Quark\\App\\Http\\Controllers\\TeamController</title>
<polygon fill="none" stroke="black" points="487.57,-1464 397.57,-1464 397.57,-1428 487.57,-1428 487.57,-1464"/>
<text text-anchor="middle" x="442.57" y="-1443.2" font-family="Courier,monospace" font-size="11.00">TeamController</text>
</g>
<!-- \\SDSLabs\\Quark\\App\\Http\\Controllers\\TeamController&#45;&gt;\\App\\Http\\Controllers\\Controller -->
<g id="edge14" class="edge">
<title>\\SDSLabs\\Quark\\App\\Http\\Controllers\\TeamController&#45;&gt;\\App\\Http\\Controllers\\Controller</title>
<path fill="none" stroke="black" d="M397.46,-1443.96C378.6,-1440.78 357.91,-1433.81 344.57,-1419 183.91,-1240.54 151.05,-424.77 146.06,-262.22"/>
<polygon fill="none" stroke="black" points="149.55,-261.96 145.75,-252.07 142.55,-262.17 149.55,-261.96"/>
</g>
<!-- \\SDSLabs\\Quark\\App\\Http\\Controllers\\UserController -->
<g id="node7" class="node">
<title>\\SDSLabs\\Quark\\App\\Http\\Controllers\\UserController</title>
<polygon fill="none" stroke="black" points="487.57,-1410 397.57,-1410 397.57,-1374 487.57,-1374 487.57,-1410"/>
<text text-anchor="middle" x="442.57" y="-1389.2" font-family="Courier,monospace" font-size="11.00">UserController</text>
</g>
<!-- \\SDSLabs\\Quark\\App\\Http\\Controllers\\UserController&#45;&gt;\\App\\Http\\Controllers\\Controller -->
<g id="edge16" class="edge">
<title>\\SDSLabs\\Quark\\App\\Http\\Controllers\\UserController&#45;&gt;\\App\\Http\\Controllers\\Controller</title>
<path fill="none" stroke="black" d="M397.51,-1389.92C378.67,-1386.73 357.97,-1379.76 344.57,-1365 190.84,-1195.57 152.58,-421.01 146.31,-262.42"/>
<polygon fill="none" stroke="black" points="149.79,-261.94 145.91,-252.08 142.8,-262.21 149.79,-261.94"/>
</g>
<!-- \\SDSLabs\\Quark\\App\\Http\\Controllers\\CompetitionController -->
<g id="node8" class="node">
<title>\\SDSLabs\\Quark\\App\\Http\\Controllers\\CompetitionController</title>
<polygon fill="none" stroke="black" points="506.07,-1356 379.07,-1356 379.07,-1320 506.07,-1320 506.07,-1356"/>
<text text-anchor="middle" x="442.57" y="-1335.2" font-family="Courier,monospace" font-size="11.00">CompetitionController</text>
</g>
<!-- \\SDSLabs\\Quark\\App\\Http\\Controllers\\CompetitionController&#45;&gt;\\App\\Http\\Controllers\\Controller -->
<g id="edge17" class="edge">
<title>\\SDSLabs\\Quark\\App\\Http\\Controllers\\CompetitionController&#45;&gt;\\App\\Http\\Controllers\\Controller</title>
<path fill="none" stroke="black" d="M378.95,-1331.42C366.06,-1327.33 353.66,-1320.93 344.57,-1311 197.58,-1150.38 154.1,-415.29 146.56,-262.05"/>
<polygon fill="none" stroke="black" points="150.06,-261.85 146.08,-252.03 143.07,-262.19 150.06,-261.85"/>
</g>
<!-- \\SDSLabs\\Quark\\App\\Http\\Controllers\\ProblemController -->
<g id="node9" class="node">
<title>\\SDSLabs\\Quark\\App\\Http\\Controllers\\ProblemController</title>
<polygon fill="none" stroke="black" points="495.57,-1302 389.57,-1302 389.57,-1266 495.57,-1266 495.57,-1302"/>
<text text-anchor="middle" x="442.57" y="-1281.2" font-family="Courier,monospace" font-size="11.00">ProblemController</text>
</g>
<!-- \\SDSLabs\\Quark\\App\\Http\\Controllers\\ProblemController&#45;&gt;\\App\\Http\\Controllers\\Controller -->
<g id="edge19" class="edge">
<title>\\SDSLabs\\Quark\\App\\Http\\Controllers\\ProblemController&#45;&gt;\\App\\Http\\Controllers\\Controller</title>
<path fill="none" stroke="black" d="M389.53,-1278.51C373.04,-1274.26 356.12,-1266.85 344.57,-1254 207.09,-1100.96 156.41,-411.19 146.98,-262.36"/>
<polygon fill="none" stroke="black" points="150.46,-261.98 146.35,-252.22 143.48,-262.42 150.46,-261.98"/>
</g>
<!-- \\SDSLabs\\Quark\\App\\Http\\Middleware\\FalconAuthenticate -->
<g id="node10" class="node">
<title>\\SDSLabs\\Quark\\App\\Http\\Middleware\\FalconAuthenticate</title>
<polygon fill="none" stroke="black" points="498.07,-1222 387.07,-1222 387.07,-1186 498.07,-1186 498.07,-1222"/>
<text text-anchor="middle" x="442.57" y="-1201.2" font-family="Courier,monospace" font-size="11.00">FalconAuthenticate</text>
</g>
<!-- \\SDSLabs\\Quark\\App\\Http\\Middleware\\DeveloperCheck -->
<g id="node11" class="node">
<title>\\SDSLabs\\Quark\\App\\Http\\Middleware\\DeveloperCheck</title>
<polygon fill="none" stroke="black" points="487.57,-1168 397.57,-1168 397.57,-1132 487.57,-1132 487.57,-1168"/>
<text text-anchor="middle" x="442.57" y="-1147.2" font-family="Courier,monospace" font-size="11.00">DeveloperCheck</text>
</g>
<!-- \\SDSLabs\\Quark\\App\\Http\\Middleware\\SubstituteBindings -->
<g id="node12" class="node">
<title>\\SDSLabs\\Quark\\App\\Http\\Middleware\\SubstituteBindings</title>
<polygon fill="none" stroke="black" points="498.07,-1114 387.07,-1114 387.07,-1078 498.07,-1078 498.07,-1114"/>
<text text-anchor="middle" x="442.57" y="-1093.2" font-family="Courier,monospace" font-size="11.00">SubstituteBindings</text>
</g>
<!-- \\SDSLabs\\Quark\\App\\Http\\Middleware\\Developer -->
<g id="node13" class="node">
<title>\\SDSLabs\\Quark\\App\\Http\\Middleware\\Developer</title>
<polygon fill="none" stroke="black" points="474.57,-1060 410.57,-1060 410.57,-1024 474.57,-1024 474.57,-1060"/>
<text text-anchor="middle" x="442.57" y="-1039.2" font-family="Courier,monospace" font-size="11.00">Developer</text>
</g>
<!-- \\SDSLabs\\Quark\\App\\Http\\Middleware\\Authenticate -->
<g id="node14" class="node">
<title>\\SDSLabs\\Quark\\App\\Http\\Middleware\\Authenticate</title>
<polygon fill="none" stroke="black" points="482.57,-1006 402.57,-1006 402.57,-970 482.57,-970 482.57,-1006"/>
<text text-anchor="middle" x="442.57" y="-985.2" font-family="Courier,monospace" font-size="11.00">Authenticate</text>
</g>
<!-- \\SDSLabs\\Quark\\App\\Models\\Solution -->
<g id="node15" class="node">
<title>\\SDSLabs\\Quark\\App\\Models\\Solution</title>
<polygon fill="none" stroke="black" points="472.07,-864 413.07,-864 413.07,-828 472.07,-828 472.07,-864"/>
<text text-anchor="middle" x="442.57" y="-843.2" font-family="Courier,monospace" font-size="11.00">Solution</text>
</g>
<!-- \\Illuminate\\Database\\Eloquent\\Model -->
<g id="node29" class="node">
<title>\\Illuminate\\Database\\Eloquent\\Model</title>
<ellipse fill="none" stroke="black" cx="144.29" cy="-180" rx="144.07" ry="18"/>
<text text-anchor="middle" x="144.29" y="-176.3" font-family="Times,serif" font-size="14.00" fill="gray">\Illuminate\Database\Eloquent\Model</text>
</g>
<!-- \\SDSLabs\\Quark\\App\\Models\\Solution&#45;&gt;\\Illuminate\\Database\\Eloquent\\Model -->
<g id="edge3" class="edge">
<title>\\SDSLabs\\Quark\\App\\Models\\Solution&#45;&gt;\\Illuminate\\Database\\Eloquent\\Model</title>
<path fill="none" stroke="black" d="M412.75,-846.22C390.58,-844.71 361.04,-838.73 344.57,-819 257.09,-714.13 380.45,-308.04 288.57,-207 284.43,-202.44 279.78,-198.5 274.75,-195.11"/>
<polygon fill="none" stroke="black" points="276.35,-191.99 265.96,-189.91 272.78,-198.02 276.35,-191.99"/>
</g>
<!-- \\SDSLabs\\Quark\\App\\Models\\Team -->
<g id="node16" class="node">
<title>\\SDSLabs\\Quark\\App\\Models\\Team</title>
<polygon fill="none" stroke="black" points="469.57,-810 415.57,-810 415.57,-774 469.57,-774 469.57,-810"/>
<text text-anchor="middle" x="442.57" y="-789.2" font-family="Courier,monospace" font-size="11.00">Team</text>
</g>
<!-- \\SDSLabs\\Quark\\App\\Models\\Team&#45;&gt;\\Illuminate\\Database\\Eloquent\\Model -->
<g id="edge4" class="edge">
<title>\\SDSLabs\\Quark\\App\\Models\\Team&#45;&gt;\\Illuminate\\Database\\Eloquent\\Model</title>
<path fill="none" stroke="black" d="M415.47,-792.34C393.08,-791.11 361.8,-785.46 344.57,-765 264.32,-669.66 372.82,-298.84 288.57,-207 284.35,-202.4 279.62,-198.43 274.5,-195.03"/>
<polygon fill="none" stroke="black" points="275.96,-191.82 265.56,-189.8 272.43,-197.87 275.96,-191.82"/>
</g>
<!-- \\SDSLabs\\Quark\\App\\Models\\User -->
<g id="node17" class="node">
<title>\\SDSLabs\\Quark\\App\\Models\\User</title>
<polygon fill="none" stroke="black" points="469.57,-540 415.57,-540 415.57,-504 469.57,-504 469.57,-540"/>
<text text-anchor="middle" x="442.57" y="-519.2" font-family="Courier,monospace" font-size="11.00">User</text>
</g>
<!-- \\Illuminate\\Foundation\\Auth\\User -->
<g id="node30" class="node">
<title>\\Illuminate\\Foundation\\Auth\\User</title>
<ellipse fill="none" stroke="black" cx="144.29" cy="-126" rx="131.08" ry="18"/>
<text text-anchor="middle" x="144.29" y="-122.3" font-family="Times,serif" font-size="14.00" fill="gray">\Illuminate\Foundation\Auth\User</text>
</g>
<!-- \\SDSLabs\\Quark\\App\\Models\\User&#45;&gt;\\Illuminate\\Foundation\\Auth\\User -->
<g id="edge6" class="edge">
<title>\\SDSLabs\\Quark\\App\\Models\\User&#45;&gt;\\Illuminate\\Foundation\\Auth\\User</title>
<path fill="none" stroke="black" d="M415.28,-521.17C393.08,-518.98 362.19,-512.19 344.57,-492 244.19,-376.92 395.33,-262.19 288.57,-153 283.16,-147.46 276.99,-142.86 270.33,-139.06"/>
<polygon fill="none" stroke="black" points="271.47,-135.71 260.97,-134.34 268.32,-141.96 271.47,-135.71"/>
</g>
<!-- \\SDSLabs\\Quark\\App\\Models\\CompetitionSubmission -->
<g id="node18" class="node">
<title>\\SDSLabs\\Quark\\App\\Models\\CompetitionSubmission</title>
<polygon fill="none" stroke="black" points="506.07,-756 379.07,-756 379.07,-720 506.07,-720 506.07,-756"/>
<text text-anchor="middle" x="442.57" y="-735.2" font-family="Courier,monospace" font-size="11.00">CompetitionSubmission</text>
</g>
<!-- \\SDSLabs\\Quark\\App\\Models\\CompetitionSubmission&#45;&gt;\\Illuminate\\Database\\Eloquent\\Model -->
<g id="edge7" class="edge">
<title>\\SDSLabs\\Quark\\App\\Models\\CompetitionSubmission&#45;&gt;\\Illuminate\\Database\\Eloquent\\Model</title>
<path fill="none" stroke="black" d="M378.92,-732.05C365.87,-727.95 353.41,-721.38 344.57,-711 198.52,-539.35 441.81,-372.27 288.57,-207 284.33,-202.42 279.57,-198.47 274.44,-195.08"/>
<polygon fill="none" stroke="black" points="275.88,-191.87 265.48,-189.88 272.37,-197.92 275.88,-191.87"/>
</g>
<!-- \\SDSLabs\\Quark\\App\\Models\\Problem -->
<g id="node19" class="node">
<title>\\SDSLabs\\Quark\\App\\Models\\Problem</title>
<polygon fill="none" stroke="black" points="469.57,-702 415.57,-702 415.57,-666 469.57,-666 469.57,-702"/>
<text text-anchor="middle" x="442.57" y="-681.2" font-family="Courier,monospace" font-size="11.00">Problem</text>
</g>
<!-- \\SDSLabs\\Quark\\App\\Models\\Problem&#45;&gt;\\Illuminate\\Database\\Eloquent\\Model -->
<g id="edge10" class="edge">
<title>\\SDSLabs\\Quark\\App\\Models\\Problem&#45;&gt;\\Illuminate\\Database\\Eloquent\\Model</title>
<path fill="none" stroke="black" d="M415.15,-684.22C392.87,-682.87 361.93,-677.12 344.57,-657 212.96,-504.36 426.57,-353.89 288.57,-207 284.3,-202.45 279.52,-198.53 274.37,-195.15"/>
<polygon fill="none" stroke="black" points="275.79,-191.93 265.38,-189.97 272.3,-197.99 275.79,-191.93"/>
</g>
<!-- \\SDSLabs\\Quark\\App\\Models\\Invite -->
<g id="node20" class="node">
<title>\\SDSLabs\\Quark\\App\\Models\\Invite</title>
<polygon fill="none" stroke="black" points="469.57,-648 415.57,-648 415.57,-612 469.57,-612 469.57,-648"/>
<text text-anchor="middle" x="442.57" y="-627.2" font-family="Courier,monospace" font-size="11.00">Invite</text>
</g>
<!-- \\SDSLabs\\Quark\\App\\Models\\Invite&#45;&gt;\\Illuminate\\Database\\Eloquent\\Model -->
<g id="edge11" class="edge">
<title>\\SDSLabs\\Quark\\App\\Models\\Invite&#45;&gt;\\Illuminate\\Database\\Eloquent\\Model</title>
<path fill="none" stroke="black" d="M415.23,-630.14C393,-628.75 362.09,-622.98 344.57,-603 227.38,-469.35 411.35,-335.53 288.57,-207 284.1,-202.32 279.09,-198.3 273.69,-194.86"/>
<polygon fill="none" stroke="black" points="275.34,-191.77 264.91,-189.92 271.91,-197.88 275.34,-191.77"/>
</g>
<!-- \\SDSLabs\\Quark\\App\\Models\\PracticeSubmission -->
<g id="node21" class="node">
<title>\\SDSLabs\\Quark\\App\\Models\\PracticeSubmission</title>
<polygon fill="none" stroke="black" points="498.07,-594 387.07,-594 387.07,-558 498.07,-558 498.07,-594"/>
<text text-anchor="middle" x="442.57" y="-573.2" font-family="Courier,monospace" font-size="11.00">PracticeSubmission</text>
</g>
<!-- \\SDSLabs\\Quark\\App\\Models\\PracticeSubmission&#45;&gt;\\Illuminate\\Database\\Eloquent\\Model -->
<g id="edge13" class="edge">
<title>\\SDSLabs\\Quark\\App\\Models\\PracticeSubmission&#45;&gt;\\Illuminate\\Database\\Eloquent\\Model</title>
<path fill="none" stroke="black" d="M386.87,-571.82C371.19,-567.98 355.43,-561.11 344.57,-549 241.77,-434.31 396.17,-317.21 288.57,-207 284.05,-202.36 279,-198.39 273.57,-194.98"/>
<polygon fill="none" stroke="black" points="275.19,-191.88 264.74,-190.08 271.79,-198 275.19,-191.88"/>
</g>
<!-- \\SDSLabs\\Quark\\App\\Models\\Competition -->
<g id="node22" class="node">
<title>\\SDSLabs\\Quark\\App\\Models\\Competition</title>
<polygon fill="none" stroke="black" points="479.57,-918 405.57,-918 405.57,-882 479.57,-882 479.57,-918"/>
<text text-anchor="middle" x="442.57" y="-897.2" font-family="Courier,monospace" font-size="11.00">Competition</text>
</g>
<!-- \\SDSLabs\\Quark\\App\\Models\\Competition&#45;&gt;\\Illuminate\\Database\\Eloquent\\Model -->
<g id="edge15" class="edge">
<title>\\SDSLabs\\Quark\\App\\Models\\Competition&#45;&gt;\\Illuminate\\Database\\Eloquent\\Model</title>
<path fill="none" stroke="black" d="M405.23,-899.59C384.24,-897.29 359.18,-890.64 344.57,-873 249.85,-758.6 388.09,-317.26 288.57,-207 284.45,-202.43 279.81,-198.48 274.79,-195.08"/>
<polygon fill="none" stroke="black" points="276.4,-191.96 266.02,-189.86 272.82,-197.98 276.4,-191.96"/>
</g>
<!-- \\SDSLabs\\Quark\\App\\Judge\\StringComparisonJudge -->
<g id="node23" class="node">
<title>\\SDSLabs\\Quark\\App\\Judge\\StringComparisonJudge</title>
<polygon fill="none" stroke="black" points="506.07,-1842 379.07,-1842 379.07,-1806 506.07,-1806 506.07,-1842"/>
<text text-anchor="middle" x="442.57" y="-1821.2" font-family="Courier,monospace" font-size="11.00">StringComparisonJudge</text>
</g>
<!-- \\SDSLabs\\Quark\\App\\Judge\\Judge -->
<g id="node24" class="node">
<title>\\SDSLabs\\Quark\\App\\Judge\\Judge</title>
<polygon fill="none" stroke="black" points="178.79,-1842 109.79,-1842 109.79,-1806 178.79,-1806 178.79,-1842"/>
<text text-anchor="start" x="117.79" y="-1827.2" font-family="Courier,monospace" font-size="11.00">«abstract»</text>
<text text-anchor="start" x="130.79" y="-1815.2" font-family="Courier,monospace" font-size="11.00">Judge</text>
</g>
<!-- \\SDSLabs\\Quark\\App\\Judge\\StringComparisonJudge&#45;&gt;\\SDSLabs\\Quark\\App\\Judge\\Judge -->
<g id="edge5" class="edge">
<title>\\SDSLabs\\Quark\\App\\Judge\\StringComparisonJudge&#45;&gt;\\SDSLabs\\Quark\\App\\Judge\\Judge</title>
<path fill="none" stroke="black" d="M378.74,-1824C321.81,-1824 239.37,-1824 189.22,-1824"/>
<polygon fill="none" stroke="black" points="189.03,-1820.5 179.03,-1824 189.03,-1827.5 189.03,-1820.5"/>
</g>
<!-- \\SDSLabs\\Quark\\App\\Helpers\\Leaderboard -->
<g id="node25" class="node">
<title>\\SDSLabs\\Quark\\App\\Helpers\\Leaderboard</title>
<polygon fill="none" stroke="black" points="479.57,-460 405.57,-460 405.57,-424 479.57,-424 479.57,-460"/>
<text text-anchor="middle" x="442.57" y="-439.2" font-family="Courier,monospace" font-size="11.00">Leaderboard</text>
</g>
<!-- \\SDSLabs\\Quark\\App\\Auth\\FalconGuard -->
<g id="node26" class="node">
<title>\\SDSLabs\\Quark\\App\\Auth\\FalconGuard</title>
<polygon fill="none" stroke="black" points="479.57,-380 405.57,-380 405.57,-344 479.57,-344 479.57,-380"/>
<text text-anchor="middle" x="442.57" y="-359.2" font-family="Courier,monospace" font-size="11.00">FalconGuard</text>
</g>
<!-- \\Illuminate\\Contracts\\Auth\\Guard -->
<g id="node32" class="node">
<title>\\Illuminate\\Contracts\\Auth\\Guard</title>
<ellipse fill="none" stroke="black" cx="144.29" cy="-72" rx="129.98" ry="18"/>
<text text-anchor="middle" x="144.29" y="-68.3" font-family="Times,serif" font-size="14.00" fill="gray">\Illuminate\Contracts\Auth\Guard</text>
</g>
<!-- \\SDSLabs\\Quark\\App\\Auth\\FalconGuard&#45;&gt;\\Illuminate\\Contracts\\Auth\\Guard -->
<g id="edge20" class="edge">
<title>\\SDSLabs\\Quark\\App\\Auth\\FalconGuard&#45;&gt;\\Illuminate\\Contracts\\Auth\\Guard</title>
<path fill="none" stroke="black" stroke-dasharray="1,5" d="M405.3,-362.73C384.87,-361.17 360.37,-355.71 344.57,-340 266.61,-262.45 367.95,-175.1 288.57,-99 282.66,-93.33 275.96,-88.67 268.76,-84.84"/>
<polygon fill="none" stroke="black" points="269.93,-81.52 259.39,-80.43 266.95,-87.86 269.93,-81.52"/>
</g>
<!-- \\SDSLabs\\Quark\\QuarkServiceProvider -->
<g id="node27" class="node">
<title>\\SDSLabs\\Quark\\QuarkServiceProvider</title>
<polygon fill="none" stroke="black" points="503.57,-320 381.57,-320 381.57,-284 503.57,-284 503.57,-320"/>
<text text-anchor="middle" x="442.57" y="-299.2" font-family="Courier,monospace" font-size="11.00">QuarkServiceProvider</text>
</g>
<!-- \\Illuminate\\Support\\ServiceProvider -->
<g id="node31" class="node">
<title>\\Illuminate\\Support\\ServiceProvider</title>
<ellipse fill="none" stroke="black" cx="144.29" cy="-18" rx="139.18" ry="18"/>
<text text-anchor="middle" x="144.29" y="-14.3" font-family="Times,serif" font-size="14.00" fill="gray">\Illuminate\Support\ServiceProvider</text>
</g>
<!-- \\SDSLabs\\Quark\\QuarkServiceProvider&#45;&gt;\\Illuminate\\Support\\ServiceProvider -->
<g id="edge18" class="edge">
<title>\\SDSLabs\\Quark\\QuarkServiceProvider&#45;&gt;\\Illuminate\\Support\\ServiceProvider</title>
<path fill="none" stroke="black" d="M436.48,-283.78C422.11,-235.98 376.46,-106.43 288.57,-45 281.41,-40 273.58,-35.85 265.38,-32.42"/>
<polygon fill="none" stroke="black" points="266.58,-29.13 255.99,-28.85 264.1,-35.68 266.58,-29.13"/>
</g>
</g>
</svg>
