<?xml version="1.0" encoding="UTF-8" standalone="no"?>
<!DOCTYPE svg PUBLIC "-//W3C//DTD SVG 1.1//EN"
 "http://www.w3.org/Graphics/SVG/1.1/DTD/svg11.dtd">
<!-- Generated by graphviz version 2.40.1 (20161225.0304)
 -->
<!-- Title: G Pages: 1 -->
<svg width="631pt" height="1998pt"
 viewBox="0.00 0.00 630.57 1998.00" xmlns="http://www.w3.org/2000/svg" xmlns:xlink="http://www.w3.org/1999/xlink">
<g id="graph0" class="graph" transform="scale(1 1) rotate(0) translate(4 1994)">
<title>G</title>
<polygon fill="#ffffff" stroke="transparent" points="-4,4 -4,-1994 626.5744,-1994 626.5744,4 -4,4"/>
<g id="clust1" class="cluster">
<title>cluster_Global</title>
<path fill="none" stroke="#c0c0c0" d="M74.2872,-260C74.2872,-260 602.5744,-260 602.5744,-260 608.5744,-260 614.5744,-266 614.5744,-272 614.5744,-272 614.5744,-1970 614.5744,-1970 614.5744,-1976 608.5744,-1982 602.5744,-1982 602.5744,-1982 74.2872,-1982 74.2872,-1982 68.2872,-1982 62.2872,-1976 62.2872,-1970 62.2872,-1970 62.2872,-272 62.2872,-272 62.2872,-266 68.2872,-260 74.2872,-260"/>
<text text-anchor="middle" x="338.4308" y="-1969.2" font-family="Times,serif" font-size="11.00" fill="#c0c0c0">Global</text>
</g>
<g id="clust2" class="cluster">
<title>cluster_\SDSLabs</title>
<path fill="none" stroke="#c0c0c0" d="M82.2872,-268C82.2872,-268 594.5744,-268 594.5744,-268 600.5744,-268 606.5744,-274 606.5744,-280 606.5744,-280 606.5744,-1942 606.5744,-1942 606.5744,-1948 600.5744,-1954 594.5744,-1954 594.5744,-1954 82.2872,-1954 82.2872,-1954 76.2872,-1954 70.2872,-1948 70.2872,-1942 70.2872,-1942 70.2872,-280 70.2872,-280 70.2872,-274 76.2872,-268 82.2872,-268"/>
<text text-anchor="middle" x="338.4308" y="-1941.2" font-family="Times,serif" font-size="11.00" fill="#c0c0c0">SDSLabs</text>
</g>
<g id="clust3" class="cluster">
<title>cluster_\SDSLabs\Quark</title>
<path fill="none" stroke="#c0c0c0" d="M90.2872,-276C90.2872,-276 586.5744,-276 586.5744,-276 592.5744,-276 598.5744,-282 598.5744,-288 598.5744,-288 598.5744,-1914 598.5744,-1914 598.5744,-1920 592.5744,-1926 586.5744,-1926 586.5744,-1926 90.2872,-1926 90.2872,-1926 84.2872,-1926 78.2872,-1920 78.2872,-1914 78.2872,-1914 78.2872,-288 78.2872,-288 78.2872,-282 84.2872,-276 90.2872,-276"/>
<text text-anchor="middle" x="338.4308" y="-1913.2" font-family="Times,serif" font-size="11.00" fill="#c0c0c0">Quark</text>
</g>
<g id="clust4" class="cluster">
<title>cluster_\SDSLabs\Quark\App</title>
<path fill="none" stroke="#c0c0c0" d="M98.2872,-328C98.2872,-328 578.5744,-328 578.5744,-328 584.5744,-328 590.5744,-334 590.5744,-340 590.5744,-340 590.5744,-1886 590.5744,-1886 590.5744,-1892 584.5744,-1898 578.5744,-1898 578.5744,-1898 98.2872,-1898 98.2872,-1898 92.2872,-1898 86.2872,-1892 86.2872,-1886 86.2872,-1886 86.2872,-340 86.2872,-340 86.2872,-334 92.2872,-328 98.2872,-328"/>
<text text-anchor="middle" x="338.4308" y="-1885.2" font-family="Times,serif" font-size="11.00" fill="#c0c0c0">App</text>
</g>
<g id="clust5" class="cluster">
<title>cluster_\SDSLabs\Quark\App\Http</title>
<path fill="none" stroke="#c0c0c0" d="M356.5744,-1034C356.5744,-1034 570.5744,-1034 570.5744,-1034 576.5744,-1034 582.5744,-1040 582.5744,-1046 582.5744,-1046 582.5744,-1858 582.5744,-1858 582.5744,-1864 576.5744,-1870 570.5744,-1870 570.5744,-1870 356.5744,-1870 356.5744,-1870 350.5744,-1870 344.5744,-1864 344.5744,-1858 344.5744,-1858 344.5744,-1046 344.5744,-1046 344.5744,-1040 350.5744,-1034 356.5744,-1034"/>
<text text-anchor="middle" x="463.5744" y="-1857.2" font-family="Times,serif" font-size="11.00" fill="#c0c0c0">Http</text>
</g>
<g id="clust6" class="cluster">
<title>cluster_\SDSLabs\Quark\App\Http\Controllers</title>
<path fill="none" stroke="#c0c0c0" d="M364.5744,-1338C364.5744,-1338 562.5744,-1338 562.5744,-1338 568.5744,-1338 574.5744,-1344 574.5744,-1350 574.5744,-1350 574.5744,-1830 574.5744,-1830 574.5744,-1836 568.5744,-1842 562.5744,-1842 562.5744,-1842 364.5744,-1842 364.5744,-1842 358.5744,-1842 352.5744,-1836 352.5744,-1830 352.5744,-1830 352.5744,-1350 352.5744,-1350 352.5744,-1344 358.5744,-1338 364.5744,-1338"/>
<text text-anchor="middle" x="463.5744" y="-1829.2" font-family="Times,serif" font-size="11.00" fill="#c0c0c0">Controllers</text>
</g>
<g id="clust7" class="cluster">
<title>cluster_\SDSLabs\Quark\App\Http\Middleware</title>
<path fill="none" stroke="#c0c0c0" d="M398.5744,-1042C398.5744,-1042 528.5744,-1042 528.5744,-1042 534.5744,-1042 540.5744,-1048 540.5744,-1054 540.5744,-1054 540.5744,-1318 540.5744,-1318 540.5744,-1324 534.5744,-1330 528.5744,-1330 528.5744,-1330 398.5744,-1330 398.5744,-1330 392.5744,-1330 386.5744,-1324 386.5744,-1318 386.5744,-1318 386.5744,-1054 386.5744,-1054 386.5744,-1048 392.5744,-1042 398.5744,-1042"/>
<text text-anchor="middle" x="463.5744" y="-1317.2" font-family="Times,serif" font-size="11.00" fill="#c0c0c0">Middleware</text>
</g>
<g id="clust8" class="cluster">
<title>cluster_\SDSLabs\Quark\App\Helpers</title>
<path fill="none" stroke="#c0c0c0" d="M422.0744,-954C422.0744,-954 505.0744,-954 505.0744,-954 511.0744,-954 517.0744,-960 517.0744,-966 517.0744,-966 517.0744,-1014 517.0744,-1014 517.0744,-1020 511.0744,-1026 505.0744,-1026 505.0744,-1026 422.0744,-1026 422.0744,-1026 416.0744,-1026 410.0744,-1020 410.0744,-1014 410.0744,-1014 410.0744,-966 410.0744,-966 410.0744,-960 416.0744,-954 422.0744,-954"/>
<text text-anchor="middle" x="463.5744" y="-1013.2" font-family="Times,serif" font-size="11.00" fill="#c0c0c0">Helpers</text>
</g>
<g id="clust9" class="cluster">
<title>cluster_\SDSLabs\Quark\App\Judge</title>
<path fill="none" stroke="#c0c0c0" d="M106.2872,-874C106.2872,-874 538.5744,-874 538.5744,-874 544.5744,-874 550.5744,-880 550.5744,-886 550.5744,-886 550.5744,-934 550.5744,-934 550.5744,-940 544.5744,-946 538.5744,-946 538.5744,-946 106.2872,-946 106.2872,-946 100.2872,-946 94.2872,-940 94.2872,-934 94.2872,-934 94.2872,-886 94.2872,-886 94.2872,-880 100.2872,-874 106.2872,-874"/>
<text text-anchor="middle" x="322.4308" y="-933.2" font-family="Times,serif" font-size="11.00" fill="#c0c0c0">Judge</text>
</g>
<g id="clust10" class="cluster">
<title>cluster_\SDSLabs\Quark\App\Auth</title>
<path fill="none" stroke="#c0c0c0" d="M422.0744,-794C422.0744,-794 505.0744,-794 505.0744,-794 511.0744,-794 517.0744,-800 517.0744,-806 517.0744,-806 517.0744,-854 517.0744,-854 517.0744,-860 511.0744,-866 505.0744,-866 505.0744,-866 422.0744,-866 422.0744,-866 416.0744,-866 410.0744,-860 410.0744,-854 410.0744,-854 410.0744,-806 410.0744,-806 410.0744,-800 416.0744,-794 422.0744,-794"/>
<text text-anchor="middle" x="463.5744" y="-853.2" font-family="Times,serif" font-size="11.00" fill="#c0c0c0">Auth</text>
</g>
<g id="clust11" class="cluster">
<title>cluster_\SDSLabs\Quark\App\Models</title>
<path fill="none" stroke="#c0c0c0" d="M388.5744,-336C388.5744,-336 538.5744,-336 538.5744,-336 544.5744,-336 550.5744,-342 550.5744,-348 550.5744,-348 550.5744,-774 550.5744,-774 550.5744,-780 544.5744,-786 538.5744,-786 538.5744,-786 388.5744,-786 388.5744,-786 382.5744,-786 376.5744,-780 376.5744,-774 376.5744,-774 376.5744,-348 376.5744,-348 376.5744,-342 382.5744,-336 388.5744,-336"/>
<text text-anchor="middle" x="463.5744" y="-773.2" font-family="Times,serif" font-size="11.00" fill="#c0c0c0">Models</text>
</g>
<!-- \\SDSLabs\\Quark\\App\\Http\\Controllers\\TeamController -->
<g id="node1" class="node">
<title>\\SDSLabs\\Quark\\App\\Http\\Controllers\\TeamController</title>
<polygon fill="none" stroke="#000000" points="519.0744,-1436 408.0744,-1436 408.0744,-1400 519.0744,-1400 519.0744,-1436"/>
<text text-anchor="middle" x="463.5744" y="-1415.2" font-family="Courier,monospace" font-size="11.00" fill="#000000">TeamController</text>
</g>
<!-- \\App\\Http\\Controllers\\Controller -->
<g id="node29" class="node">
<title>\\App\\Http\\Controllers\\Controller</title>
<ellipse fill="none" stroke="#000000" cx="144.2872" cy="-234" rx="126.978" ry="18"/>
<text text-anchor="middle" x="144.2872" y="-230.3" font-family="Times,serif" font-size="14.00" fill="#c0c0c0">\App\Http\Controllers\Controller</text>
</g>
<!-- \\SDSLabs\\Quark\\App\\Http\\Controllers\\TeamController&#45;&gt;\\App\\Http\\Controllers\\Controller -->
<g id="edge2" class="edge">
<title>\\SDSLabs\\Quark\\App\\Http\\Controllers\\TeamController&#45;&gt;\\App\\Http\\Controllers\\Controller</title>
<path fill="none" stroke="#000000" d="M407.9515,-1418.8041C385.1002,-1416.1054 360.3508,-1408.7222 344.5744,-1391 267.1487,-1304.0252 307.7102,-984.8616 288.5744,-870 248.9714,-632.2849 175.4794,-350.2017 151.8285,-261.858"/>
<polygon fill="none" stroke="#000000" points="155.1713,-260.8106 149.1969,-252.0609 148.4109,-262.6265 155.1713,-260.8106"/>
</g>
<!-- \\SDSLabs\\Quark\\App\\Http\\Controllers\\CompetitionController -->
<g id="node2" class="node">
<title>\\SDSLabs\\Quark\\App\\Http\\Controllers\\CompetitionController</title>
<polygon fill="none" stroke="#000000" points="542.5744,-1382 384.5744,-1382 384.5744,-1346 542.5744,-1346 542.5744,-1382"/>
<text text-anchor="middle" x="463.5744" y="-1361.2" font-family="Courier,monospace" font-size="11.00" fill="#000000">CompetitionController</text>
</g>
<!-- \\SDSLabs\\Quark\\App\\Http\\Controllers\\CompetitionController&#45;&gt;\\App\\Http\\Controllers\\Controller -->
<g id="edge3" class="edge">
<title>\\SDSLabs\\Quark\\App\\Http\\Controllers\\CompetitionController&#45;&gt;\\App\\Http\\Controllers\\Controller</title>
<path fill="none" stroke="#000000" d="M384.455,-1358.013C369.3331,-1353.3315 354.994,-1345.8328 344.5744,-1334 275.937,-1256.0534 306.3093,-972.334 288.5744,-870 247.423,-632.548 174.9574,-350.2904 151.6965,-261.8805"/>
<polygon fill="none" stroke="#000000" points="155.0449,-260.8517 149.1091,-252.0758 148.2766,-262.6378 155.0449,-260.8517"/>
</g>
<!-- \\SDSLabs\\Quark\\App\\Http\\Controllers\\CompetitionInvitesController -->
<g id="node3" class="node">
<title>\\SDSLabs\\Quark\\App\\Http\\Controllers\\CompetitionInvitesController</title>
<polygon fill="none" stroke="#000000" points="566.5744,-1814 360.5744,-1814 360.5744,-1778 566.5744,-1778 566.5744,-1814"/>
<text text-anchor="middle" x="463.5744" y="-1793.2" font-family="Courier,monospace" font-size="11.00" fill="#000000">CompetitionInvitesController</text>
</g>
<!-- \\SDSLabs\\Quark\\App\\Http\\Controllers\\CompetitionInvitesController&#45;&gt;\\App\\Http\\Controllers\\Controller -->
<g id="edge4" class="edge">
<title>\\SDSLabs\\Quark\\App\\Http\\Controllers\\CompetitionInvitesController&#45;&gt;\\App\\Http\\Controllers\\Controller</title>
<path fill="none" stroke="#000000" d="M360.3092,-1782.3514C354.4441,-1778.7252 349.1045,-1774.3247 344.5744,-1769 279.7216,-1692.7726 302.8029,-969.0659 288.5744,-870 254.3133,-631.4564 177.2803,-349.9224 152.2838,-261.7874"/>
<polygon fill="none" stroke="#000000" points="155.6055,-260.6724 149.4998,-252.0139 148.8733,-262.5902 155.6055,-260.6724"/>
</g>
<!-- \\SDSLabs\\Quark\\App\\Http\\Controllers\\SubmissionController -->
<g id="node4" class="node">
<title>\\SDSLabs\\Quark\\App\\Http\\Controllers\\SubmissionController</title>
<polygon fill="none" stroke="#000000" points="539.5744,-1760 387.5744,-1760 387.5744,-1724 539.5744,-1724 539.5744,-1760"/>
<text text-anchor="middle" x="463.5744" y="-1739.2" font-family="Courier,monospace" font-size="11.00" fill="#000000">SubmissionController</text>
</g>
<!-- \\SDSLabs\\Quark\\App\\Http\\Controllers\\SubmissionController&#45;&gt;\\App\\Http\\Controllers\\Controller -->
<g id="edge5" class="edge">
<title>\\SDSLabs\\Quark\\App\\Http\\Controllers\\SubmissionController&#45;&gt;\\App\\Http\\Controllers\\Controller</title>
<path fill="none" stroke="#000000" d="M387.4746,-1739.4561C371.1344,-1735.262 355.5133,-1727.8059 344.5744,-1715 283.4596,-1643.454 302.1362,-963.1124 288.5744,-870 253.8405,-631.5248 177.1209,-349.9454 152.2435,-261.7932"/>
<polygon fill="none" stroke="#000000" points="155.5672,-260.6844 149.473,-252.0178 148.8325,-262.5932 155.5672,-260.6844"/>
</g>
<!-- \\SDSLabs\\Quark\\App\\Http\\Controllers\\UserController -->
<g id="node5" class="node">
<title>\\SDSLabs\\Quark\\App\\Http\\Controllers\\UserController</title>
<polygon fill="none" stroke="#000000" points="519.0744,-1706 408.0744,-1706 408.0744,-1670 519.0744,-1670 519.0744,-1706"/>
<text text-anchor="middle" x="463.5744" y="-1685.2" font-family="Courier,monospace" font-size="11.00" fill="#000000">UserController</text>
</g>
<!-- \\SDSLabs\\Quark\\App\\Http\\Controllers\\UserController&#45;&gt;\\App\\Http\\Controllers\\Controller -->
<g id="edge6" class="edge">
<title>\\SDSLabs\\Quark\\App\\Http\\Controllers\\UserController&#45;&gt;\\App\\Http\\Controllers\\Controller</title>
<path fill="none" stroke="#000000" d="M407.9496,-1689.1091C384.9553,-1686.4911 360.0947,-1679.0867 344.5744,-1661 287.1968,-1594.1346 301.4697,-957.1601 288.5744,-870 253.3036,-631.6036 176.9399,-349.972 152.1978,-261.8"/>
<polygon fill="none" stroke="#000000" points="155.5237,-260.6981 149.4426,-252.0222 148.786,-262.5967 155.5237,-260.6981"/>
</g>
<!-- \\SDSLabs\\Quark\\App\\Http\\Controllers\\CompetitionProblemController -->
<g id="node6" class="node">
<title>\\SDSLabs\\Quark\\App\\Http\\Controllers\\CompetitionProblemController</title>
<polygon fill="none" stroke="#000000" points="566.5744,-1652 360.5744,-1652 360.5744,-1616 566.5744,-1616 566.5744,-1652"/>
<text text-anchor="middle" x="463.5744" y="-1631.2" font-family="Courier,monospace" font-size="11.00" fill="#000000">CompetitionProblemController</text>
</g>
<!-- \\SDSLabs\\Quark\\App\\Http\\Controllers\\CompetitionProblemController&#45;&gt;\\App\\Http\\Controllers\\Controller -->
<g id="edge7" class="edge">
<title>\\SDSLabs\\Quark\\App\\Http\\Controllers\\CompetitionProblemController&#45;&gt;\\App\\Http\\Controllers\\Controller</title>
<path fill="none" stroke="#000000" d="M360.3916,-1620.2809C354.5071,-1616.6712 349.1407,-1612.2937 344.5744,-1607 290.933,-1544.8139 300.8035,-951.2093 288.5744,-870 252.6888,-631.6954 176.7326,-350.003 152.1454,-261.8078"/>
<polygon fill="none" stroke="#000000" points="155.4737,-260.7138 149.4077,-252.0274 148.7328,-262.6007 155.4737,-260.7138"/>
</g>
<!-- \\SDSLabs\\Quark\\App\\Http\\Controllers\\ProblemController -->
<g id="node7" class="node">
<title>\\SDSLabs\\Quark\\App\\Http\\Controllers\\ProblemController</title>
<polygon fill="none" stroke="#000000" points="529.0744,-1598 398.0744,-1598 398.0744,-1562 529.0744,-1562 529.0744,-1598"/>
<text text-anchor="middle" x="463.5744" y="-1577.2" font-family="Courier,monospace" font-size="11.00" fill="#000000">ProblemController</text>
</g>
<!-- \\SDSLabs\\Quark\\App\\Http\\Controllers\\ProblemController&#45;&gt;\\App\\Http\\Controllers\\Controller -->
<g id="edge8" class="edge">
<title>\\SDSLabs\\Quark\\App\\Http\\Controllers\\ProblemController&#45;&gt;\\App\\Http\\Controllers\\Controller</title>
<path fill="none" stroke="#000000" d="M397.8474,-1579.543C377.9709,-1575.9969 357.9041,-1568.36 344.5744,-1553 294.668,-1495.4918 300.1375,-945.2604 288.5744,-870 251.9776,-631.8035 176.4929,-350.0394 152.0847,-261.817"/>
<polygon fill="none" stroke="#000000" points="155.416,-260.7321 149.3674,-252.0336 148.6713,-262.6055 155.416,-260.7321"/>
</g>
<!-- \\SDSLabs\\Quark\\App\\Http\\Controllers\\PracticeProblemController -->
<g id="node8" class="node">
<title>\\SDSLabs\\Quark\\App\\Http\\Controllers\\PracticeProblemController</title>
<polygon fill="none" stroke="#000000" points="556.0744,-1544 371.0744,-1544 371.0744,-1508 556.0744,-1508 556.0744,-1544"/>
<text text-anchor="middle" x="463.5744" y="-1523.2" font-family="Courier,monospace" font-size="11.00" fill="#000000">PracticeProblemController</text>
</g>
<!-- \\SDSLabs\\Quark\\App\\Http\\Controllers\\PracticeProblemController&#45;&gt;\\App\\Http\\Controllers\\Controller -->
<g id="edge9" class="edge">
<title>\\SDSLabs\\Quark\\App\\Http\\Controllers\\PracticeProblemController&#45;&gt;\\App\\Http\\Controllers\\Controller</title>
<path fill="none" stroke="#000000" d="M370.829,-1517.565C360.8608,-1513.2174 351.754,-1507.215 344.5744,-1499 252.2284,-1393.3359 310.3694,-1008.6278 288.5744,-870 251.1455,-631.9329 176.2124,-350.083 152.0138,-261.828"/>
<polygon fill="none" stroke="#000000" points="155.3483,-260.7536 149.3202,-252.0409 148.5993,-262.6112 155.3483,-260.7536"/>
</g>
<!-- \\SDSLabs\\Quark\\App\\Http\\Controllers\\SolutionController -->
<g id="node9" class="node">
<title>\\SDSLabs\\Quark\\App\\Http\\Controllers\\SolutionController</title>
<polygon fill="none" stroke="#000000" points="532.5744,-1490 394.5744,-1490 394.5744,-1454 532.5744,-1454 532.5744,-1490"/>
<text text-anchor="middle" x="463.5744" y="-1469.2" font-family="Courier,monospace" font-size="11.00" fill="#000000">SolutionController</text>
</g>
<!-- \\SDSLabs\\Quark\\App\\Http\\Controllers\\SolutionController&#45;&gt;\\App\\Http\\Controllers\\Controller -->
<g id="edge10" class="edge">
<title>\\SDSLabs\\Quark\\App\\Http\\Controllers\\SolutionController&#45;&gt;\\App\\Http\\Controllers\\Controller</title>
<path fill="none" stroke="#000000" d="M394.5688,-1470.7717C375.8362,-1466.9719 357.2506,-1459.3836 344.5744,-1445 259.6912,-1348.6835 309.0392,-996.7408 288.5744,-870 250.1592,-632.09 175.8798,-350.136 151.9297,-261.8414"/>
<polygon fill="none" stroke="#000000" points="155.2681,-260.7794 149.2643,-252.0498 148.5138,-262.618 155.2681,-260.7794"/>
</g>
<!-- \\SDSLabs\\Quark\\App\\Http\\Middleware\\Authenticate -->
<g id="node10" class="node">
<title>\\SDSLabs\\Quark\\App\\Http\\Middleware\\Authenticate</title>
<polygon fill="none" stroke="#000000" points="512.5744,-1302 414.5744,-1302 414.5744,-1266 512.5744,-1266 512.5744,-1302"/>
<text text-anchor="middle" x="463.5744" y="-1281.2" font-family="Courier,monospace" font-size="11.00" fill="#000000">Authenticate</text>
</g>
<!-- \\SDSLabs\\Quark\\App\\Http\\Middleware\\FalconAuthenticate -->
<g id="node11" class="node">
<title>\\SDSLabs\\Quark\\App\\Http\\Middleware\\FalconAuthenticate</title>
<polygon fill="none" stroke="#000000" points="532.5744,-1248 394.5744,-1248 394.5744,-1212 532.5744,-1212 532.5744,-1248"/>
<text text-anchor="middle" x="463.5744" y="-1227.2" font-family="Courier,monospace" font-size="11.00" fill="#000000">FalconAuthenticate</text>
</g>
<!-- \\SDSLabs\\Quark\\App\\Http\\Middleware\\Developer -->
<g id="node12" class="node">
<title>\\SDSLabs\\Quark\\App\\Http\\Middleware\\Developer</title>
<polygon fill="none" stroke="#000000" points="502.0744,-1194 425.0744,-1194 425.0744,-1158 502.0744,-1158 502.0744,-1194"/>
<text text-anchor="middle" x="463.5744" y="-1173.2" font-family="Courier,monospace" font-size="11.00" fill="#000000">Developer</text>
</g>
<!-- \\SDSLabs\\Quark\\App\\Http\\Middleware\\DeveloperCheck -->
<g id="node13" class="node">
<title>\\SDSLabs\\Quark\\App\\Http\\Middleware\\DeveloperCheck</title>
<polygon fill="none" stroke="#000000" points="519.0744,-1140 408.0744,-1140 408.0744,-1104 519.0744,-1104 519.0744,-1140"/>
<text text-anchor="middle" x="463.5744" y="-1119.2" font-family="Courier,monospace" font-size="11.00" fill="#000000">DeveloperCheck</text>
</g>
<!-- \\SDSLabs\\Quark\\App\\Http\\Middleware\\SubstituteBindings -->
<g id="node14" class="node">
<title>\\SDSLabs\\Quark\\App\\Http\\Middleware\\SubstituteBindings</title>
<polygon fill="none" stroke="#000000" points="532.5744,-1086 394.5744,-1086 394.5744,-1050 532.5744,-1050 532.5744,-1086"/>
<text text-anchor="middle" x="463.5744" y="-1065.2" font-family="Courier,monospace" font-size="11.00" fill="#000000">SubstituteBindings</text>
</g>
<!-- \\SDSLabs\\Quark\\App\\Helpers\\Leaderboard -->
<g id="node15" class="node">
<title>\\SDSLabs\\Quark\\App\\Helpers\\Leaderboard</title>
<polygon fill="none" stroke="#000000" points="509.0744,-998 418.0744,-998 418.0744,-962 509.0744,-962 509.0744,-998"/>
<text text-anchor="middle" x="463.5744" y="-977.2" font-family="Courier,monospace" font-size="11.00" fill="#000000">Leaderboard</text>
</g>
<!-- \\SDSLabs\\Quark\\App\\Judge\\Judge -->
<g id="node16" class="node">
<title>\\SDSLabs\\Quark\\App\\Judge\\Judge</title>
<polygon fill="none" stroke="#000000" points="186.2872,-918 102.2872,-918 102.2872,-882 186.2872,-882 186.2872,-918"/>
<text text-anchor="start" x="110.2872" y="-903.2" font-family="Courier,monospace" font-size="11.00" fill="#000000">«abstract»</text>
<text text-anchor="start" x="127.2872" y="-891.2" font-family="Courier,monospace" font-size="11.00" fill="#000000">Judge</text>
</g>
<!-- \\SDSLabs\\Quark\\App\\Judge\\StringComparisonJudge -->
<g id="node17" class="node">
<title>\\SDSLabs\\Quark\\App\\Judge\\StringComparisonJudge</title>
<polygon fill="none" stroke="#000000" points="542.5744,-918 384.5744,-918 384.5744,-882 542.5744,-882 542.5744,-918"/>
<text text-anchor="middle" x="463.5744" y="-897.2" font-family="Courier,monospace" font-size="11.00" fill="#000000">StringComparisonJudge</text>
</g>
<!-- \\SDSLabs\\Quark\\App\\Judge\\StringComparisonJudge&#45;&gt;\\SDSLabs\\Quark\\App\\Judge\\Judge -->
<g id="edge11" class="edge">
<title>\\SDSLabs\\Quark\\App\\Judge\\StringComparisonJudge&#45;&gt;\\SDSLabs\\Quark\\App\\Judge\\Judge</title>
<path fill="none" stroke="#000000" d="M384.2392,-900C325.6649,-900 247.5871,-900 196.643,-900"/>
<polygon fill="none" stroke="#000000" points="196.5155,-896.5001 186.5155,-900 196.5155,-903.5001 196.5155,-896.5001"/>
</g>
<!-- \\SDSLabs\\Quark\\App\\Auth\\FalconGuard -->
<g id="node18" class="node">
<title>\\SDSLabs\\Quark\\App\\Auth\\FalconGuard</title>
<polygon fill="none" stroke="#000000" points="509.0744,-838 418.0744,-838 418.0744,-802 509.0744,-802 509.0744,-838"/>
<text text-anchor="middle" x="463.5744" y="-817.2" font-family="Courier,monospace" font-size="11.00" fill="#000000">FalconGuard</text>
</g>
<!-- \\Illuminate\\Contracts\\Auth\\Guard -->
<g id="node30" class="node">
<title>\\Illuminate\\Contracts\\Auth\\Guard</title>
<ellipse fill="none" stroke="#000000" cx="144.2872" cy="-180" rx="129.9769" ry="18"/>
<text text-anchor="middle" x="144.2872" y="-176.3" font-family="Times,serif" font-size="14.00" fill="#c0c0c0">\Illuminate\Contracts\Auth\Guard</text>
</g>
<!-- \\SDSLabs\\Quark\\App\\Auth\\FalconGuard&#45;&gt;\\Illuminate\\Contracts\\Auth\\Guard -->
<g id="edge12" class="edge">
<title>\\SDSLabs\\Quark\\App\\Auth\\FalconGuard&#45;&gt;\\Illuminate\\Contracts\\Auth\\Guard</title>
<path fill="none" stroke="#000000" stroke-dasharray="1,5" d="M417.9961,-820.5677C392.5626,-818.3018 362.4858,-810.8471 344.5744,-790 259.7566,-691.2809 376.4096,-303.0441 288.5744,-207 283.3718,-201.3111 277.384,-196.5897 270.8693,-192.6866"/>
<polygon fill="none" stroke="#000000" points="272.1634,-189.4127 261.6833,-187.8572 268.906,-195.6086 272.1634,-189.4127"/>
</g>
<!-- \\SDSLabs\\Quark\\App\\Models\\CompetitionSubmission -->
<g id="node19" class="node">
<title>\\SDSLabs\\Quark\\App\\Models\\CompetitionSubmission</title>
<polygon fill="none" stroke="#000000" points="542.5744,-434 384.5744,-434 384.5744,-398 542.5744,-398 542.5744,-434"/>
<text text-anchor="middle" x="463.5744" y="-413.2" font-family="Courier,monospace" font-size="11.00" fill="#000000">CompetitionSubmission</text>
</g>
<!-- \\Illuminate\\Database\\Eloquent\\Model -->
<g id="node31" class="node">
<title>\\Illuminate\\Database\\Eloquent\\Model</title>
<ellipse fill="none" stroke="#000000" cx="144.2872" cy="-126" rx="144.0747" ry="18"/>
<text text-anchor="middle" x="144.2872" y="-122.3" font-family="Times,serif" font-size="14.00" fill="#c0c0c0">\Illuminate\Database\Eloquent\Model</text>
</g>
<!-- \\SDSLabs\\Quark\\App\\Models\\CompetitionSubmission&#45;&gt;\\Illuminate\\Database\\Eloquent\\Model -->
<g id="edge13" class="edge">
<title>\\SDSLabs\\Quark\\App\\Models\\CompetitionSubmission&#45;&gt;\\Illuminate\\Database\\Eloquent\\Model</title>
<path fill="none" stroke="#000000" d="M384.3165,-410.8387C369.568,-406.5633 355.413,-399.7322 344.5744,-389 267.9722,-313.1499 366.6085,-227.3762 288.5744,-153 283.7319,-148.3845 278.3654,-144.4317 272.6334,-141.0541"/>
<polygon fill="none" stroke="#000000" points="273.8322,-137.7318 263.3476,-136.2075 270.5932,-143.9374 273.8322,-137.7318"/>
</g>
<!-- \\SDSLabs\\Quark\\App\\Models\\Invite -->
<g id="node20" class="node">
<title>\\SDSLabs\\Quark\\App\\Models\\Invite</title>
<polygon fill="none" stroke="#000000" points="492.0744,-758 435.0744,-758 435.0744,-722 492.0744,-722 492.0744,-758"/>
<text text-anchor="middle" x="463.5744" y="-737.2" font-family="Courier,monospace" font-size="11.00" fill="#000000">Invite</text>
</g>
<!-- \\SDSLabs\\Quark\\App\\Models\\Invite&#45;&gt;\\Illuminate\\Database\\Eloquent\\Model -->
<g id="edge14" class="edge">
<title>\\SDSLabs\\Quark\\App\\Models\\Invite&#45;&gt;\\Illuminate\\Database\\Eloquent\\Model</title>
<path fill="none" stroke="#000000" d="M434.8734,-742.1804C407.3814,-742.5441 366.878,-738.2419 344.5744,-713 261.7633,-619.2791 373.1569,-245.1253 288.5744,-153 284.3786,-148.4301 279.6761,-144.4851 274.6011,-141.0876"/>
<polygon fill="none" stroke="#000000" points="276.1268,-137.9245 265.7324,-135.873 272.5787,-143.9587 276.1268,-137.9245"/>
</g>
<!-- \\SDSLabs\\Quark\\App\\Models\\Problem -->
<g id="node21" class="node">
<title>\\SDSLabs\\Quark\\App\\Models\\Problem</title>
<polygon fill="none" stroke="#000000" points="495.5744,-704 431.5744,-704 431.5744,-668 495.5744,-668 495.5744,-704"/>
<text text-anchor="middle" x="463.5744" y="-683.2" font-family="Courier,monospace" font-size="11.00" fill="#000000">Problem</text>
</g>
<!-- \\SDSLabs\\Quark\\App\\Models\\Problem&#45;&gt;\\Illuminate\\Database\\Eloquent\\Model -->
<g id="edge15" class="edge">
<title>\\SDSLabs\\Quark\\App\\Models\\Problem&#45;&gt;\\Illuminate\\Database\\Eloquent\\Model</title>
<path fill="none" stroke="#000000" d="M431.5011,-688.1449C404.2033,-688.0658 366.0936,-683.0968 344.5744,-659 193.8638,-490.2375 442.4746,-318.859 288.5744,-153 284.3546,-148.4523 279.6326,-144.5253 274.542,-141.1422"/>
<polygon fill="none" stroke="#000000" points="276.0509,-137.9702 265.6507,-135.9484 272.5201,-144.0145 276.0509,-137.9702"/>
</g>
<!-- \\SDSLabs\\Quark\\App\\Models\\Competition -->
<g id="node22" class="node">
<title>\\SDSLabs\\Quark\\App\\Models\\Competition</title>
<polygon fill="none" stroke="#000000" points="509.0744,-650 418.0744,-650 418.0744,-614 509.0744,-614 509.0744,-650"/>
<text text-anchor="middle" x="463.5744" y="-629.2" font-family="Courier,monospace" font-size="11.00" fill="#000000">Competition</text>
</g>
<!-- \\SDSLabs\\Quark\\App\\Models\\Competition&#45;&gt;\\Illuminate\\Database\\Eloquent\\Model -->
<g id="edge16" class="edge">
<title>\\SDSLabs\\Quark\\App\\Models\\Competition&#45;&gt;\\Illuminate\\Database\\Eloquent\\Model</title>
<path fill="none" stroke="#000000" d="M418.0147,-633.6004C392.7506,-631.9098 362.839,-625.1858 344.5744,-605 208.7597,-454.8995 427.2256,-300.4844 288.5744,-153 284.2691,-148.4204 279.4541,-144.4726 274.2675,-141.0775"/>
<polygon fill="none" stroke="#000000" points="275.6264,-137.8215 265.2126,-135.8713 272.1373,-143.89 275.6264,-137.8215"/>
</g>
<!-- \\SDSLabs\\Quark\\App\\Models\\User -->
<g id="node23" class="node">
<title>\\SDSLabs\\Quark\\App\\Models\\User</title>
<polygon fill="none" stroke="#000000" points="490.5744,-380 436.5744,-380 436.5744,-344 490.5744,-344 490.5744,-380"/>
<text text-anchor="middle" x="463.5744" y="-359.2" font-family="Courier,monospace" font-size="11.00" fill="#000000">User</text>
</g>
<!-- \\Illuminate\\Foundation\\Auth\\User -->
<g id="node32" class="node">
<title>\\Illuminate\\Foundation\\Auth\\User</title>
<ellipse fill="none" stroke="#000000" cx="144.2872" cy="-72" rx="131.077" ry="18"/>
<text text-anchor="middle" x="144.2872" y="-68.3" font-family="Times,serif" font-size="14.00" fill="#c0c0c0">\Illuminate\Foundation\Auth\User</text>
</g>
<!-- \\SDSLabs\\Quark\\App\\Models\\User&#45;&gt;\\Illuminate\\Foundation\\Auth\\User -->
<g id="edge17" class="edge">
<title>\\SDSLabs\\Quark\\App\\Models\\User&#45;&gt;\\Illuminate\\Foundation\\Auth\\User</title>
<path fill="none" stroke="#000000" d="M436.1755,-364.8363C409.2871,-366.011 368.8789,-363.223 344.5744,-340 265.0687,-264.0323 367.9973,-175.0543 288.5744,-99 282.7505,-93.4231 276.162,-88.8123 269.087,-85.014"/>
<polygon fill="none" stroke="#000000" points="270.4188,-81.7715 259.8861,-80.6258 267.4054,-88.0897 270.4188,-81.7715"/>
</g>
<!-- \\SDSLabs\\Quark\\App\\Models\\Team -->
<g id="node24" class="node">
<title>\\SDSLabs\\Quark\\App\\Models\\Team</title>
<polygon fill="none" stroke="#000000" points="490.5744,-596 436.5744,-596 436.5744,-560 490.5744,-560 490.5744,-596"/>
<text text-anchor="middle" x="463.5744" y="-575.2" font-family="Courier,monospace" font-size="11.00" fill="#000000">Team</text>
</g>
<!-- \\SDSLabs\\Quark\\App\\Models\\Team&#45;&gt;\\Illuminate\\Database\\Eloquent\\Model -->
<g id="edge18" class="edge">
<title>\\SDSLabs\\Quark\\App\\Models\\Team&#45;&gt;\\Illuminate\\Database\\Eloquent\\Model</title>
<path fill="none" stroke="#000000" d="M436.3688,-579.9719C409.0359,-580.3349 367.7383,-576.1793 344.5744,-551 223.6337,-419.5371 411.999,-282.1336 288.5744,-153 284.1255,-148.3453 279.1493,-144.3464 273.7933,-140.9192"/>
<polygon fill="none" stroke="#000000" points="275.5122,-137.8704 265.0852,-135.992 272.065,-143.9628 275.5122,-137.8704"/>
</g>
<!-- \\SDSLabs\\Quark\\App\\Models\\Solution -->
<g id="node25" class="node">
<title>\\SDSLabs\\Quark\\App\\Models\\Solution</title>
<polygon fill="none" stroke="#000000" points="499.0744,-542 428.0744,-542 428.0744,-506 499.0744,-506 499.0744,-542"/>
<text text-anchor="middle" x="463.5744" y="-521.2" font-family="Courier,monospace" font-size="11.00" fill="#000000">Solution</text>
</g>
<!-- \\SDSLabs\\Quark\\App\\Models\\Solution&#45;&gt;\\Illuminate\\Database\\Eloquent\\Model -->
<g id="edge19" class="edge">
<title>\\SDSLabs\\Quark\\App\\Models\\Solution&#45;&gt;\\Illuminate\\Database\\Eloquent\\Model</title>
<path fill="none" stroke="#000000" d="M428.0013,-525.8041C401.2415,-525.1096 365.6871,-519.4581 344.5744,-497 238.4753,-384.1397 396.8055,-263.8174 288.5744,-153 284.0171,-148.3338 278.9288,-144.3307 273.4614,-140.9048"/>
<polygon fill="none" stroke="#000000" points="275.0228,-137.7687 264.5793,-135.984 271.6305,-143.8918 275.0228,-137.7687"/>
</g>
<!-- \\SDSLabs\\Quark\\App\\Models\\PracticeSubmission -->
<g id="node26" class="node">
<title>\\SDSLabs\\Quark\\App\\Models\\PracticeSubmission</title>
<polygon fill="none" stroke="#000000" points="532.5744,-488 394.5744,-488 394.5744,-452 532.5744,-452 532.5744,-488"/>
<text text-anchor="middle" x="463.5744" y="-467.2" font-family="Courier,monospace" font-size="11.00" fill="#000000">PracticeSubmission</text>
</g>
<!-- \\SDSLabs\\Quark\\App\\Models\\PracticeSubmission&#45;&gt;\\Illuminate\\Database\\Eloquent\\Model -->
<g id="edge20" class="edge">
<title>\\SDSLabs\\Quark\\App\\Models\\PracticeSubmission&#45;&gt;\\Illuminate\\Database\\Eloquent\\Model</title>
<path fill="none" stroke="#000000" d="M394.4655,-467.8147C376.0679,-463.9368 357.6891,-456.5461 344.5744,-443 253.2664,-348.6886 381.6636,-245.5538 288.5744,-153 283.949,-148.4012 278.8063,-144.4521 273.296,-141.0687"/>
<polygon fill="none" stroke="#000000" points="274.8127,-137.9095 264.3558,-136.2056 271.4678,-144.0586 274.8127,-137.9095"/>
</g>
<!-- \\SDSLabs\\Quark\\QuarkServiceProvider -->
<g id="node27" class="node">
<title>\\SDSLabs\\Quark\\QuarkServiceProvider</title>
<polygon fill="none" stroke="#000000" points="539.5744,-320 387.5744,-320 387.5744,-284 539.5744,-284 539.5744,-320"/>
<text text-anchor="middle" x="463.5744" y="-299.2" font-family="Courier,monospace" font-size="11.00" fill="#000000">QuarkServiceProvider</text>
</g>
<!-- \\Illuminate\\Support\\ServiceProvider -->
<g id="node28" class="node">
<title>\\Illuminate\\Support\\ServiceProvider</title>
<ellipse fill="none" stroke="#000000" cx="144.2872" cy="-18" rx="139.1754" ry="18"/>
<text text-anchor="middle" x="144.2872" y="-14.3" font-family="Times,serif" font-size="14.00" fill="#c0c0c0">\Illuminate\Support\ServiceProvider</text>
</g>
<!-- \\SDSLabs\\Quark\\QuarkServiceProvider&#45;&gt;\\Illuminate\\Support\\ServiceProvider -->
<g id="edge1" class="edge">
<title>\\SDSLabs\\Quark\\QuarkServiceProvider&#45;&gt;\\Illuminate\\Support\\ServiceProvider</title>
<path fill="none" stroke="#000000" d="M456.941,-283.731C438.5228,-235.809 381.8757,-105.9927 288.5744,-45 280.9768,-40.0333 272.7004,-35.9261 264.081,-32.5352"/>
<polygon fill="none" stroke="#000000" points="265.2039,-29.2196 254.6094,-29.1301 262.8357,-35.8069 265.2039,-29.2196"/>
</g>
</g>
</svg>
